<svg style="display: none;" aria-hidden="true" xmlns="http://www.w3.org/2000/svg" xmlns:xlink="http://www.w3.org/1999/xlink"><symbol viewBox="0 0 20 20" id="email"><g><path d="M18.4025 3H1.59751C1.43905 3.00018 1.28715 3.06086 1.17513 3.16872 1.06311 3.27658 1.00012 3.42282 1 3.57533V4.73273C1 4.78605 1.06008 4.84725 1.10917 4.872L9.94226 9.72817C9.96488 9.74062 9.99054 9.74707 10.0166 9.74685 10.0432 9.74692 10.0694 9.74008 10.0923 9.72705L18.6585 4.87673C18.7066 4.85085 18.8343 4.78245 18.8822 4.75095 18.9402 4.71293 19 4.6785 19 4.61033V3.5751C18.9998 3.42263 18.9368 3.27645 18.8248 3.16864 18.7128 3.06083 18.5609 3.00018 18.4025 3zM18.9254 6.47777C18.9024 6.46515 18.8763 6.45859 18.8498 6.45874 18.8234 6.4589 18.7974 6.46578 18.7746 6.47867L13.927 9.2239C13.9077 9.23473 13.8911 9.24961 13.8786 9.26744 13.8661 9.28526 13.8579 9.30557 13.8546 9.32686 13.8514 9.34815 13.8531 9.36987 13.8598 9.39041 13.8664 9.41095 13.8778 9.42979 13.8931 9.44552L18.7414 14.4758C18.7553 14.4904 18.7722 14.502 18.7909 14.5099 18.8097 14.5178 18.83 14.5218 18.8506 14.5217 18.8901 14.5217 18.9281 14.5065 18.9561 14.4796 18.9841 14.4526 18.9999 14.4161 18.9999 14.378V6.60265C19 6.57735 18.9932 6.55248 18.9801 6.53056 18.967 6.50863 18.9481 6.49042 18.9254 6.47777zM12.53 10.1457C12.507 10.1216 12.4761 10.1058 12.4425 10.1009 12.4088 10.0961 12.3745 10.1025 12.3451 10.1191L10.4021 11.2196C10.2882 11.2829 10.1592 11.3166 10.0278 11.3175 9.89627 11.3183 9.76683 11.2862 9.65214 11.2243L7.94214 10.2841C7.91453 10.2689 7.88264 10.2626 7.85108 10.2661 7.81951 10.2696 7.78992 10.2827 7.76658 10.3034L1.27303 16.1008C1.256 16.1161 1.24293 16.135 1.23486 16.156 1.22678 16.1771 1.22392 16.1997 1.22651 16.2219 1.2291 16.2442 1.23706 16.2656 1.24977 16.2844 1.26247 16.3032 1.27956 16.3189 1.29968 16.3303 1.40066 16.3874 1.49814 16.4146 1.59726 16.4146H18.2304C18.2595 16.4147 18.288 16.4065 18.3123 16.3911 18.3366 16.3757 18.3557 16.3538 18.3672 16.328 18.3788 16.3024 18.3824 16.2741 18.3775 16.2465 18.3726 16.219 18.3594 16.1934 18.3396 16.173L12.53 10.1457zM6.33782 9.61787C6.35502 9.60257 6.36824 9.58358 6.37641 9.56245 6.38458 9.54132 6.38747 9.51864 6.38486 9.49624 6.38224 9.47383 6.37418 9.45234 6.36134 9.43348 6.3485 9.41463 6.33124 9.39894 6.31094 9.38769L1.22278 6.59049C1.20007 6.57809 1.17438 6.57163 1.14827 6.57178 1.12216 6.57193 1.09654 6.57867 1.07399 6.59134 1.05143 6.604 1.03273 6.62214 1.01975 6.64395 1.00676 6.66576.999954 6.69046 1 6.71559V14.0551C.999838 14.0831 1.00822 14.1106 1.0241 14.1341 1.03999 14.1576 1.06268 14.1761 1.08938 14.1873 1.11607 14.1985 1.1456 14.2019 1.17429 14.1971 1.20299 14.1924 1.2296 14.1796 1.25083 14.1604L6.33782 9.61787z"/></g></symbol><symbol viewBox="0 0 40 41" id="instagram"><circle cx="20" cy="20.355" r="20"/><path d="M26.5808 12.3545H14.4192C13.0462 12.3545 12 13.4006 12 14.7737V26.9353C12 28.3083 13.0462 29.3545 14.4192 29.3545H26.5808C27.9538 29.3545 29 28.3083 29 26.9353V14.7737C29 13.4006 27.9538 12.3545 26.5808 12.3545ZM20.5 25.9545C23.3115 25.9545 25.6 23.7314 25.6 21.0506C25.6 20.593 25.5346 20.0699 25.4038 19.6776H26.8423V26.6083C26.8423 26.9353 26.5808 27.2622 26.1885 27.2622H14.8115C14.4846 27.2622 14.1577 27.0006 14.1577 26.6083V19.6122H15.6615C15.5308 20.0699 15.4654 20.5276 15.4654 20.9853C15.4 23.7314 17.6885 25.9545 20.5 25.9545ZM20.5 23.993C18.6692 23.993 17.2308 22.5545 17.2308 20.7891C17.2308 19.0237 18.6692 17.5853 20.5 17.5853C22.3308 17.5853 23.7692 19.0237 23.7692 20.7891C23.7692 22.6199 22.3308 23.993 20.5 23.993ZM26.7769 16.9968C26.7769 17.3891 26.45 17.716 26.0577 17.716H24.2269C23.8346 17.716 23.5077 17.3891 23.5077 16.9968V15.2314C23.5077 14.8391 23.8346 14.5122 24.2269 14.5122H26.0577C26.45 14.5122 26.7769 14.8391 26.7769 15.2314V16.9968Z"/></symbol><symbol viewBox="0 0 22 22" id="location"><path d="M11 1.375C8.99503 1.37737 7.07286 2.17489 5.65513 3.59262C4.23739 5.01035 3.43987 6.93253 3.43751 8.9375C3.43511 10.576 3.97031 12.17 4.96101 13.475C4.96101 13.475 5.16726 13.7466 5.20095 13.7858L11 20.625L16.8018 13.7823C16.8321 13.7459 17.039 13.475 17.039 13.475L17.0397 13.4729C18.0299 12.1685 18.5649 10.5752 18.5625 8.9375C18.5601 6.93253 17.7626 5.01035 16.3449 3.59262C14.9272 2.17489 13.005 1.37737 11 1.375ZM13.475 12.375L11 10.7999L8.52501 12.375L8.93751 9.57412L6.87501 7.68144L9.76251 7.33288L11 4.8125L12.3145 7.33356L15.125 7.68144L13.0625 9.57412L13.475 12.375Z"/></symbol><symbol viewBox="0 0 20 20" id="phone"><path d="M12.8396 13.55L14.2396 12.15C14.4281 11.9638 14.6667 11.8363 14.9263 11.7831C15.1859 11.7298 15.4554 11.7531 15.7021 11.85L17.4083 12.5313C17.6576 12.6324 17.8713 12.8051 18.0226 13.0276C18.1738 13.25 18.2559 13.5123 18.2583 13.7813V16.9063C18.2569 17.0893 18.2184 17.2701 18.1452 17.4378C18.0721 17.6055 17.9657 17.7567 17.8326 17.8823C17.6995 18.0078 17.5423 18.1051 17.3706 18.1683C17.1988 18.2315 17.0161 18.2593 16.8333 18.25C4.87707 17.5063 2.46457 7.38128 2.00832 3.50628C1.98714 3.31599 2.0065 3.12337 2.0651 2.94109C2.12371 2.75882 2.22025 2.59102 2.34837 2.44874C2.47648 2.30645 2.63327 2.1929 2.80842 2.11557C2.98357 2.03823 3.17311 1.99885 3.36457 2.00003H6.38332C6.6527 2.00082 6.91569 2.08219 7.13845 2.23367C7.3612 2.38515 7.53355 2.5998 7.63332 2.85003L8.31457 4.55628C8.41473 4.80194 8.44028 5.07168 8.38804 5.33178C8.3358 5.59189 8.20807 5.83084 8.02082 6.01878L6.62082 7.41878C6.62082 7.41878 7.42707 12.875 12.8396 13.55Z"/></symbol><symbol viewBox="0 0 200 198" id="quote"><path opacity=".8" fill-rule="evenodd" clip-rule="evenodd" d="M0 166.422C29.9555 149.31 44.933 129.202 44.933 106.1C32.1651 104.388 21.6072 98.3276 13.2589 87.9173C4.91066 77.5069 0.736618 65.4567 0.736618 51.7664C0.736618 37.2204 4.7879 24.9563 12.8906 14.9737C20.9933 4.9912 31.183 0 43.4598 0C57.2099 0 69.1183 6.48856 79.1853 19.4659C89.2523 32.4432 94.2857 48.2011 94.2857 66.7401C94.2857 122.357 67.5226 165.852 13.9955 197.226L0 166.422ZM105.714 166.422C135.915 149.31 151.016 129.202 151.016 106.1C138.002 104.388 127.321 98.3276 118.973 87.9173C110.625 77.5069 106.451 65.4567 106.451 51.7664C106.451 37.2204 110.564 24.9563 118.789 14.9737C127.015 4.9912 137.266 0 149.542 0C163.292 0 175.139 6.48856 185.084 19.4659C195.028 32.4432 200 48.2011 200 66.7401C200 122.357 173.36 165.852 120.078 197.226L105.714 166.422Z"/><defs><linearGradient id="epaint0_linear_1_2030" x1="200" y1="98.613" x2="-.037" y2="99.431" gradientUnits="userSpaceOnUse"><stop stop-color="#FF7A00"/><stop offset="1" stop-color="#FFB039"/></linearGradient></defs></symbol><symbol viewBox="0 0 40 41" id="vk"><circle cx="20" cy="20.355" r="20"/><path d="M29.806 25.4698C29.806 25.3868 29.723 25.3868 29.723 25.3038C29.3909 24.6396 28.6437 23.8094 27.6474 22.8961C27.1493 22.481 26.9002 22.1489 26.7342 21.9828C26.4851 21.6508 26.4851 21.4017 26.5681 21.0696C26.6512 20.8205 26.9832 20.4054 27.5644 19.6582C27.8965 19.2431 28.0625 18.994 28.3116 18.745C29.5569 17.0845 30.1381 16.0052 29.972 15.5071L29.889 15.424C29.806 15.341 29.723 15.258 29.5569 15.258C29.3909 15.175 29.1418 15.175 28.8928 15.258H25.7379C25.6549 15.258 25.6549 15.258 25.4888 15.258C25.4058 15.258 25.3228 15.258 25.3228 15.258H25.2398H25.1567L25.0737 15.341C24.9907 15.424 24.9907 15.424 24.9907 15.5071C24.6586 16.4203 24.2435 17.1675 23.8284 17.9977C23.5793 18.4129 23.3302 18.828 23.0812 19.1601C22.8321 19.4922 22.666 19.7412 22.5 19.9073C22.3339 20.0733 22.1679 20.1563 22.0849 20.3224C22.0018 20.4054 21.8358 20.4884 21.8358 20.4054C21.7528 20.4054 21.6698 20.4054 21.6698 20.3224C21.5867 20.2394 21.5037 20.1563 21.4207 20.0733C21.3377 19.9903 21.3377 19.8242 21.2546 19.6582C21.2546 19.4922 21.2546 19.3261 21.2546 19.2431C21.2546 19.1601 21.2546 18.911 21.2546 18.745C21.2546 18.4959 21.2546 18.3298 21.2546 18.2468C21.2546 17.9977 21.2546 17.6657 21.2546 17.3336C21.2546 17.0015 21.2546 16.7524 21.2546 16.5864C21.2546 16.4203 21.2546 16.1712 21.2546 16.0052C21.2546 15.7561 21.2546 15.5901 21.2546 15.5071C21.2546 15.424 21.1716 15.258 21.1716 15.175C21.0886 15.0919 21.0056 15.0089 20.9226 14.9259C20.8395 14.8429 20.6735 14.8429 20.5905 14.7599C20.1754 14.6768 19.6772 14.5938 19.0961 14.5938C17.7677 14.5938 16.8544 14.6768 16.5223 14.8429C16.3563 14.9259 16.1903 15.0089 16.1072 15.175C15.9412 15.341 15.9412 15.424 16.0242 15.424C16.4393 15.5071 16.7714 15.6731 16.9375 15.9222L17.0205 16.0882C17.1035 16.1712 17.1035 16.3373 17.1865 16.5864C17.2695 16.8354 17.2696 17.0845 17.2696 17.4166C17.2696 17.9147 17.2696 18.4129 17.2696 18.745C17.2696 19.1601 17.1865 19.4091 17.1865 19.6582C17.1865 19.9073 17.1035 20.0733 17.0205 20.1563C16.9375 20.3224 16.9375 20.4054 16.8544 20.4054C16.8544 20.4054 16.8544 20.4884 16.7714 20.4884C16.6884 20.4884 16.6054 20.5715 16.4393 20.5715C16.3563 20.5715 16.1903 20.4884 16.1072 20.4054C15.9412 20.3224 15.7751 20.1563 15.6921 19.9903C15.5261 19.8243 15.36 19.5752 15.194 19.2431C15.0279 18.911 14.7789 18.5789 14.6128 18.0808L14.4468 17.7487C14.3638 17.5826 14.1977 17.2505 14.0317 16.8354C13.8656 16.4203 13.6996 16.0882 13.5335 15.6731C13.4505 15.5071 13.3675 15.424 13.2845 15.341H13.2014C13.2014 15.341 13.1184 15.258 13.0354 15.258C12.9524 15.258 12.8693 15.175 12.7863 15.175H9.79749C9.4654 15.175 9.29935 15.258 9.21633 15.341L9.1333 15.424C9.1333 15.424 9.1333 15.5071 9.1333 15.5901C9.1333 15.6731 9.13331 15.7561 9.21633 15.9222C9.63144 16.9184 10.1296 17.9147 10.6277 18.911C11.1259 19.8243 11.624 20.6545 11.9561 21.2356C12.3712 21.8168 12.7033 22.398 13.1184 22.8961C13.5335 23.3942 13.7826 23.7263 13.8656 23.8924C14.0317 24.0584 14.1147 24.1414 14.1977 24.2245L14.4468 24.4735C14.6128 24.6396 14.8619 24.8887 15.194 25.1377C15.5261 25.3868 15.9412 25.6359 16.3563 25.8849C16.7714 26.134 17.2696 26.3 17.7677 26.4661C18.3489 26.6321 18.847 26.7152 19.3451 26.6321H20.5905C20.8395 26.6321 21.0056 26.5491 21.1716 26.3831L21.2546 26.3C21.2546 26.217 21.3377 26.217 21.3377 26.134C21.3377 26.051 21.3377 25.968 21.3377 25.8019C21.3377 25.4698 21.3377 25.2207 21.4207 24.9717C21.5037 24.7226 21.5037 24.5566 21.5868 24.3905C21.6698 24.2245 21.7528 24.1414 21.8358 24.0584C21.9188 23.9754 22.0019 23.8924 22.0019 23.8924H22.0849C22.2509 23.8094 22.5 23.8924 22.666 24.0584C22.9151 24.2245 23.1642 24.4735 23.3302 24.7226C23.4963 24.9717 23.7453 25.2207 24.0774 25.5528C24.4095 25.8849 24.6586 26.134 24.8246 26.217L25.0737 26.3831C25.2397 26.4661 25.4058 26.5491 25.6549 26.6321C25.9039 26.7152 26.07 26.7152 26.236 26.7152L29.0588 26.6321C29.3079 26.6321 29.5569 26.5491 29.723 26.4661C29.889 26.3831 29.972 26.3 29.972 26.134C29.972 26.051 29.972 25.8849 29.972 25.8019C29.806 25.6359 29.806 25.5528 29.806 25.4698Z"/></symbol></svg>