<svg style="display: none;" aria-hidden="true" xmlns="http://www.w3.org/2000/svg" xmlns:xlink="http://www.w3.org/1999/xlink"><symbol viewBox="0 0 88 88" fill="none" id="deal"><path d="M5.97809 68.3552C6.31647 68.3552 6.64813 68.2175 6.88849 67.9772C7.12952 67.7361 7.26715 67.4045 7.26715 67.0661C7.26715 66.7257 7.12952 66.394 6.88849 66.153C6.64813 65.9147 6.31647 65.777 5.97809 65.777C5.6377 65.777 5.30603 65.9147 5.065 66.153C4.82599 66.394 4.68701 66.7257 4.68701 67.0661C4.68701 67.4045 4.82599 67.7361 5.065 67.9772C5.30603 68.2175 5.6377 68.3552 5.97809 68.3552Z" fill="#FFB039"/><path d="M85.8516 35.8366H78.1944C77.0101 35.8366 76.046 36.8 76.046 37.985V38.5974H72.3325C71.1475 38.5974 70.1841 39.5608 70.1841 40.7458V43.4065H49.98C48.8635 43.4065 47.8141 43.8429 47.0246 44.6345L46.4788 45.1816L46.3418 45.0447C45.4099 44.1101 43.7583 43.4038 42.4968 43.4018H17.8152V40.7451C17.8152 39.5608 16.8518 38.5967 15.6668 38.5967H11.954V37.9844C11.954 36.8 10.9899 35.8359 9.8056 35.8359H2.14844C0.96344 35.8359 0 36.8 0 37.9844V71.0918C0 72.2761 0.96344 73.2402 2.14844 73.2402H9.8056C10.9899 73.2402 11.954 72.2768 11.954 71.0918V70.4795H15.6675C16.8518 70.4795 17.8159 69.5154 17.8159 68.3311V67.2904L19.3655 68.3989C19.2648 69.6618 19.683 70.9454 20.629 71.8948C21.4548 72.7226 22.564 73.1791 23.753 73.1791C23.7839 73.1791 23.8148 73.1771 23.8456 73.1765C23.8208 74.3507 24.2444 75.5216 25.124 76.4031C25.9491 77.2316 27.0582 77.6875 28.2473 77.6875C28.2781 77.6875 28.309 77.6855 28.3406 77.6855C28.3151 78.8591 28.7394 80.0306 29.6176 80.9122C30.4434 81.74 31.5525 82.1959 32.7415 82.1959C32.7724 82.1959 32.8033 82.1945 32.8342 82.1939C32.8093 83.3681 33.2336 84.539 34.1125 85.4205C34.9376 86.2484 36.0468 86.7049 37.2358 86.7049C38.4718 86.7049 39.638 86.2175 40.5189 85.3339L40.823 85.0285C41.5387 85.4487 42.3564 85.6737 43.2104 85.6737C44.4753 85.6737 45.661 85.1822 46.5499 84.2906L46.9407 83.8992C47.5436 83.2936 47.9478 82.5638 48.1552 81.7917C48.8306 82.1536 49.5906 82.3456 50.3809 82.3456C51.6451 82.3456 52.8314 81.8541 53.7203 80.9625L54.1111 80.5704C54.6891 79.991 55.0846 79.2968 55.2994 78.5603C56.046 79.0343 56.9135 79.2888 57.8225 79.2888C59.0867 79.2888 60.2731 78.798 61.162 77.9057L61.5521 77.5143C62.2094 76.855 62.6303 76.0487 62.8176 75.1993C63.3661 75.4175 63.9563 75.5324 64.5652 75.5324C65.8301 75.5324 67.0158 75.0409 67.9054 74.1493L68.2955 73.7579C69.9108 72.1378 70.1069 69.6248 68.8836 67.7879L70.1841 67.0541V68.3311C70.1841 69.5161 71.1475 70.4795 72.3325 70.4795H76.046V71.0925C76.046 72.2768 77.0101 73.2409 78.1944 73.2409H85.8516C87.0366 73.2409 88 72.2768 88 71.0925V37.985C88 36.8 87.0366 35.8366 85.8516 35.8366ZM9.37592 70.6621H2.57812V38.4147H9.37592V70.6621ZM23.753 70.601C23.2542 70.601 22.7936 70.4137 22.4552 70.0747C21.716 69.3334 21.7549 68.0887 22.5418 67.2991L23.1125 66.7264C23.5066 66.3317 24.0242 66.1135 24.5701 66.1135C25.0689 66.1135 25.5295 66.3008 25.8679 66.6398C26.6071 67.381 26.5681 68.6258 25.7812 69.4147L25.2099 69.988C24.8165 70.3835 24.2988 70.601 23.753 70.601ZM28.2473 75.1094C27.7484 75.1094 27.2878 74.9227 26.9495 74.583C26.2103 73.8425 26.2492 72.5971 27.0361 71.8082L27.6074 71.2348C28.0009 70.84 28.5192 70.6225 29.065 70.6225C29.5638 70.6225 30.0244 70.8092 30.3621 71.1475C31.1006 71.8894 31.0624 73.1342 30.2755 73.9237L29.7042 74.4964C29.3107 74.8919 28.7931 75.1094 28.2473 75.1094ZM32.7415 79.6177C32.2427 79.6177 31.7814 79.4311 31.4437 79.092C30.7052 78.3508 30.7435 77.1061 31.5297 76.3172C31.5297 76.3165 31.5303 76.3165 31.5303 76.3165L32.1017 75.7432C32.1017 75.7432 32.1017 75.7432 32.1024 75.7425C32.4958 75.3477 33.0134 75.1302 33.5586 75.1302C34.0574 75.1302 34.5187 75.3175 34.8564 75.6566C35.5956 76.3978 35.5566 77.6425 34.7698 78.4321L34.1984 79.0048C33.805 79.4002 33.2874 79.6177 32.7415 79.6177ZM38.6927 83.5138C38.2993 83.9086 37.7816 84.1268 37.2358 84.1268C36.7369 84.1268 36.2764 83.9401 35.938 83.6004C35.1995 82.8592 35.2384 81.6144 36.0246 80.8256L36.5959 80.2522C36.9901 79.8568 37.5077 79.6392 38.0535 79.6392C38.5524 79.6392 39.0129 79.8259 39.3513 80.1656C40.0898 80.9068 40.0509 82.1516 39.2647 82.9404L38.6927 83.5138ZM66.47 71.9371L66.0792 72.3292C65.6777 72.732 65.14 72.9542 64.5652 72.9542C63.9912 72.9542 63.4534 72.732 63.0519 72.3292L52.9785 62.2208C52.4756 61.7166 51.6592 61.7152 51.155 62.2181C50.6508 62.7203 50.6494 63.5367 51.1523 64.0409L59.7266 72.6447C60.5645 73.486 60.5645 74.8536 59.7266 75.6942L59.3358 76.0856C58.9343 76.4891 58.3965 76.7106 57.8225 76.7106C57.2478 76.7106 56.71 76.4891 56.3085 76.0856L46.4002 66.1464C45.898 65.6422 45.0816 65.6408 44.5774 66.1437C44.0732 66.6459 44.0718 67.4623 44.5747 67.9665L52.2419 75.6586L52.2849 75.7015C53.1228 76.5421 53.1228 77.9097 52.2849 78.7503L51.8948 79.1417C51.4927 79.5452 50.9549 79.7668 50.3809 79.7668C49.8062 79.7668 49.2684 79.5452 48.8669 79.1417L38.067 68.3076C37.5641 67.8034 36.7484 67.802 36.2435 68.3042C35.7393 68.8071 35.7386 69.6228 36.2408 70.127L45.1145 79.0296C45.9524 79.8702 45.9524 81.2378 45.1145 82.0784L44.7244 82.4698C44.3223 82.8733 43.7845 83.0949 43.2104 83.0949C42.8667 83.0949 42.537 83.0143 42.241 82.8639C42.7324 81.3056 42.3813 79.5533 41.1768 78.3448C40.3517 77.517 39.2419 77.0611 38.0535 77.0611C38.022 77.0611 37.9911 77.0624 37.9602 77.0631C37.9857 75.8889 37.5614 74.718 36.6826 73.8364C35.8568 73.0079 34.7476 72.5521 33.5586 72.5521C33.5277 72.5521 33.4968 72.5541 33.4659 72.5541C33.4908 71.3805 33.0671 70.2089 32.1883 69.3274C31.3632 68.4996 30.2534 68.0437 29.065 68.0437C29.0334 68.0437 29.0026 68.045 28.9717 68.0457C28.9972 66.8715 28.5729 65.7006 27.694 64.819C26.8682 63.9912 25.7591 63.5347 24.5701 63.5347C23.334 63.5347 22.1685 64.0214 21.287 64.9063L20.7156 65.479C20.576 65.6187 20.4484 65.7664 20.3303 65.9188L17.8159 64.1201V61.0552C17.8159 60.3436 17.2385 59.7662 16.5269 59.7662C15.8145 59.7662 15.2378 60.3436 15.2378 61.0552V67.9014H11.954V41.1755H15.2378V54.8677C15.2378 55.5801 15.8145 56.1568 16.5269 56.1568C17.2385 56.1568 17.8159 55.5801 17.8159 54.8677V45.9806H42.4954C43.0708 45.9813 44.0718 46.419 44.5163 46.8648L44.6586 47.0078L35.5137 56.1816C34.5543 57.1444 34.0118 58.4187 33.9856 59.7702C33.9601 61.1378 34.4677 62.4141 35.4143 63.3641C36.3368 64.2886 37.5768 64.7982 38.9055 64.7982C40.2906 64.7982 41.5971 64.2524 42.584 63.2614L45.712 60.124C46.9091 60.8129 48.2794 61.1841 49.6705 61.1841C51.7894 61.1841 53.7814 60.357 55.2786 58.8544L55.8735 58.2576L66.47 68.8883C67.3079 69.7289 67.3079 71.0965 66.47 71.9371ZM72.7622 67.9014V56.0709C72.7622 55.3592 72.1848 54.7818 71.4731 54.7818C70.7615 54.7818 70.1841 55.3592 70.1841 56.0709V64.0939L67.0776 65.8463L57.6936 56.4321L59.0914 55.0302C59.5936 54.526 59.5923 53.7096 59.0881 53.2074C58.5839 52.7045 57.7675 52.7059 57.2653 53.2101L53.4525 57.035C52.4427 58.0481 51.0992 58.6067 49.6705 58.6067C48.4688 58.6067 47.2905 58.1965 46.3525 57.4512C45.8389 57.043 45.1011 57.086 44.6378 57.5499L40.7585 61.442C40.2584 61.9435 39.6004 62.2201 38.9055 62.2201C38.2664 62.2201 37.6749 61.9797 37.2398 61.544C36.7913 61.0935 36.551 60.4805 36.563 59.8185C36.5765 59.1364 36.8524 58.4905 37.3398 58.0011L48.8508 46.4546C49.1522 46.1518 49.5537 45.9846 49.98 45.9846H70.1841V49.8834C70.1841 50.5957 70.7608 51.1724 71.4731 51.1724C72.1848 51.1724 72.7622 50.5957 72.7622 49.8834V41.1755H76.046V67.9014H72.7622ZM85.4219 70.6621H78.6241V38.4147H85.4219V70.6621Z" fill="#2B7AF1"/><path d="M82.024 68.3552C82.3624 68.3552 82.694 68.2175 82.9351 67.9772C83.1741 67.7361 83.311 67.4045 83.311 67.0661C83.311 66.7257 83.1741 66.394 82.9351 66.153C82.694 65.9147 82.3624 65.777 82.024 65.777C81.6836 65.777 81.3519 65.9147 81.1116 66.153C80.8705 66.394 80.7329 66.7257 80.7329 67.0661C80.7329 67.4045 80.8705 67.7361 81.1116 67.9772C81.3519 68.2175 81.6836 68.3552 82.024 68.3552Z" fill="#FFB039"/><path d="M43.9999 41.4265C46.6579 41.4265 49.2635 40.7095 51.5355 39.3539C52.1465 38.9887 52.3466 38.1978 51.982 37.5862C51.6168 36.9752 50.8259 36.7751 50.2142 37.1397C48.3417 38.2576 46.1926 38.8484 43.9999 38.8484C37.2853 38.8484 31.8223 33.3665 31.8223 26.6278C31.8223 19.8898 37.2853 14.4072 43.9999 14.4072C50.7144 14.4072 56.1775 19.8898 56.1775 26.6278C56.1775 28.8407 55.582 31.0079 54.4567 32.8952C54.0915 33.5062 54.2916 34.2977 54.9032 34.6623C55.5148 35.0268 56.3057 34.8274 56.6703 34.2158C58.0345 31.9291 58.7556 29.3053 58.7556 26.6278C58.7556 18.4678 52.1364 11.8291 43.9999 11.8291C35.8633 11.8291 29.2441 18.4678 29.2441 26.6278C29.2441 34.7878 35.8633 41.4265 43.9999 41.4265Z" fill="#2B7AF1"/><path d="M39.5552 24.6788V23.2884C39.5552 22.5767 38.9785 21.9993 38.2661 21.9993 37.5544 21.9993 36.9771 22.5767 36.9771 23.2884V24.6788C36.9771 25.3912 37.5544 25.9679 38.2661 25.9679 38.9785 25.9679 39.5552 25.3912 39.5552 24.6788zM51.0229 24.6788V23.2884C51.0229 22.5767 50.4462 21.9993 49.7339 21.9993 49.0222 21.9993 48.4448 22.5767 48.4448 23.2884V24.6788C48.4448 25.3912 49.0222 25.9679 49.7339 25.9679 50.4462 25.9679 51.0229 25.3912 51.0229 24.6788zM44.0001 34.3185C47.075 34.3185 49.5773 32.0217 49.5773 29.1985 49.5773 28.4869 48.9999 27.9095 48.2882 27.9095 47.5765 27.9095 46.9991 28.4869 46.9991 29.1985 46.9991 30.5997 45.6537 31.7404 44.0001 31.7404 42.3464 31.7404 41.001 30.5997 41.001 29.1985 41.001 28.4869 40.4236 27.9095 39.7119 27.9095 38.9996 27.9095 38.4229 28.4869 38.4229 29.1985 38.4229 32.0217 40.9244 34.3185 44.0001 34.3185z" fill="#FFB039"/><path d="M65.4688 19.0197C70.3209 19.0197 74.2673 15.0626 74.2673 10.1977C74.2673 8.88379 73.9779 7.6377 73.4616 6.51648L74.5654 5.40936C75.0682 4.90515 75.0669 4.08875 74.5627 3.58588C74.0585 3.08368 73.2421 3.08502 72.7399 3.58923L72.0181 4.31299C70.4061 2.51099 68.0677 1.375 65.4694 1.375C60.618 1.375 56.6709 5.33282 56.6709 10.197C56.6709 15.0619 60.6173 19.0197 65.4688 19.0197ZM65.4688 3.95312C67.358 3.95312 69.0519 4.80444 70.194 6.14319L65.4688 10.8832L62.7235 8.12848C62.2213 7.62427 61.4048 7.6236 60.9006 8.12579C60.3964 8.62799 60.3951 9.4444 60.8973 9.94861L64.1918 13.2538C64.5328 13.5956 64.986 13.7836 65.4688 13.7836C65.9522 13.7836 66.4053 13.5956 66.7457 13.2538L71.4602 8.52393C71.6086 9.05701 71.6892 9.61829 71.6892 10.1977C71.6892 13.6406 68.8989 16.4416 65.4688 16.4416C62.0386 16.4416 59.2484 13.6406 59.2484 10.1977C59.249 6.75482 62.0393 3.95312 65.4688 3.95312Z" fill="#2B7AF1"/><path d="M14.0493 18.8599L13.5941 21.5153C13.4457 22.3793 13.7941 23.236 14.5031 23.7516C14.8966 24.037 15.3612 24.188 15.8472 24.188C16.2165 24.188 16.5844 24.0974 16.9114 23.9255L19.2962 22.6721L21.6803 23.9255C22.0072 24.0974 22.3751 24.188 22.7444 24.188C23.2298 24.188 23.6951 24.0377 24.0885 23.7516C24.7975 23.236 25.146 22.3793 24.9982 21.5153L24.543 18.8606L26.4719 16.98C27.0997 16.3684 27.3212 15.4701 27.05 14.6356C26.7794 13.8024 26.0718 13.2062 25.2044 13.08L22.5383 12.6926L21.3466 10.2762C20.9585 9.49072 20.1723 9.00195 19.2962 9.00195C18.4193 9.00195 17.6338 9.49072 17.2457 10.2769L16.0534 12.6926L13.3873 13.08C12.5199 13.2062 11.8129 13.8024 11.5416 14.6362C11.2711 15.4701 11.4926 16.3684 12.1204 16.98L14.0493 18.8599ZM17.0947 15.1465C17.5143 15.0854 17.8775 14.8215 18.0648 14.4409L19.2955 11.9473L20.5261 14.4409C20.7141 14.8215 21.0773 15.0854 21.497 15.1465L24.249 15.546L22.2576 17.4869C21.9535 17.783 21.8152 18.21 21.887 18.6283L22.357 21.3689L19.8957 20.0745C19.7077 19.9758 19.5016 19.9268 19.2955 19.9268C19.09 19.9268 18.8839 19.9758 18.6959 20.0745L16.2346 21.3689L16.7046 18.6283C16.7764 18.21 16.6381 17.783 16.334 17.4869L14.3427 15.546L17.0947 15.1465Z" fill="#FFB039"/><defs><linearGradient id="apaint0_linear_1_2155" x1="4.687" y1="67.066" x2="7.268" y2="67.056" gradientUnits="userSpaceOnUse"><stop stop-color="#FF7A00"/><stop offset="1" stop-color="#FFB039"/></linearGradient><linearGradient id="apaint1_linear_1_2155" x1="80.733" y1="67.066" x2="83.311" y2="67.056" gradientUnits="userSpaceOnUse"><stop stop-color="#FF7A00"/><stop offset="1" stop-color="#FFB039"/></linearGradient><linearGradient id="apaint2_linear_1_2155" x1="36.977" y1="23.984" x2="39.556" y2="23.977" gradientUnits="userSpaceOnUse"><stop stop-color="#FF7A00"/><stop offset="1" stop-color="#FFB039"/></linearGradient><linearGradient id="apaint3_linear_1_2155" x1="48.445" y1="23.984" x2="51.023" y2="23.977" gradientUnits="userSpaceOnUse"><stop stop-color="#FF7A00"/><stop offset="1" stop-color="#FFB039"/></linearGradient><linearGradient id="apaint4_linear_1_2155" x1="38.423" y1="31.114" x2="49.579" y2="31.036" gradientUnits="userSpaceOnUse"><stop stop-color="#FF7A00"/><stop offset="1" stop-color="#FFB039"/></linearGradient><linearGradient id="apaint5_linear_1_2155" x1="11.428" y1="16.595" x2="27.167" y2="16.529" gradientUnits="userSpaceOnUse"><stop stop-color="#FF7A00"/><stop offset="1" stop-color="#FFB039"/></linearGradient></defs></symbol><symbol viewBox="0 0 80 80" fill="none" id="documents"><g clip-path="url(#bclip0_1_2593)"><path d="M71.0938 0H23.5938C21.0091 0 18.9062 2.10281 18.9062 4.6875V10.135C18.7311 10.2116 18.5669 10.3172 18.4264 10.4577L4.67641 24.2077C4.37797 24.5063 4.22297 24.9055 4.2225 25.3116C4.22125 25.3119 4.22 25.3122 4.21875 25.3127V75.3127C4.21875 77.8973 6.32156 80.0002 8.90625 80.0002H56.4062C58.9909 80.0002 61.0938 77.8973 61.0938 75.3127V70.0002H71.0938C73.6784 70.0002 75.7812 67.8973 75.7812 65.3127V4.6875C75.7812 2.10281 73.6784 0 71.0938 0ZM47.2855 10H43.6752C42.8878 8.51469 41.3261 7.5 39.5312 7.5C36.9466 7.5 34.8438 9.60281 34.8438 12.1875V21.3992C34.8438 22.262 35.5434 22.9617 36.4062 22.9617C37.2691 22.9617 37.9688 22.262 37.9688 21.3992V12.1875C37.9688 11.3259 38.6697 10.625 39.5312 10.625C40.3928 10.625 41.0938 11.3259 41.0938 12.1875V22.6492C41.0938 25.2339 38.9909 27.3367 36.4062 27.3367C33.8216 27.3367 31.7188 25.2339 31.7188 22.6492V10.9375C31.7188 6.62969 35.2234 3.125 39.5312 3.125C43.5217 3.125 46.8206 6.13281 47.2855 10ZM23.5938 3.125H31.887C30.0667 4.90656 28.8656 7.31609 28.6366 10H22.0312V4.6875C22.0312 3.82594 22.7322 3.125 23.5938 3.125ZM17.9688 15.3348V21.0156C17.9688 22.5233 16.742 23.75 15.2344 23.75H9.55359L17.9688 15.3348ZM72.6562 65.3125C72.6562 66.1741 71.9553 66.875 71.0938 66.875H61.0938V36.5889C61.0938 35.7261 60.3941 35.0264 59.5312 35.0264C58.6684 35.0264 57.9688 35.7261 57.9688 36.5889V75.3125C57.9688 76.1741 57.2678 76.875 56.4062 76.875H8.90625C8.04469 76.875 7.34375 76.1741 7.34375 75.3125V26.875H15.2344C18.4653 26.875 21.0938 24.2466 21.0938 21.0156V13.125H28.5938V22.6492C28.5938 26.957 32.0984 30.4617 36.4062 30.4617C40.7141 30.4617 44.2188 26.957 44.2188 22.6492V13.125H56.4062C57.2678 13.125 57.9688 13.8259 57.9688 14.6875V24.0889C57.9688 24.9517 58.6684 25.6514 59.5312 25.6514C60.3941 25.6514 61.0938 24.9517 61.0938 24.0889V14.6875C61.0938 12.1028 58.9909 10 56.4062 10H50.4258C50.1967 7.31609 48.9956 4.90656 47.1753 3.125H71.0938C71.9553 3.125 72.6562 3.82594 72.6562 4.6875V65.3125Z" fill="#2B7AF1"/><path d="M16.5723 53.0475H48.7399C49.6027 53.0475 50.3024 52.3478 50.3024 51.485C50.3024 50.6222 49.6027 49.9225 48.7399 49.9225H46.8848V43.8191C46.8848 42.9563 46.1851 42.2566 45.3223 42.2566H39.3848V38.6471C39.3848 37.7842 38.6851 37.0846 37.8223 37.0846H31.8848V34.4949C31.8848 33.6321 31.1851 32.9324 30.3223 32.9324H22.8223C21.9595 32.9324 21.2598 33.6321 21.2598 34.4949V49.9224H18.1348V34.4949C18.1348 33.6321 17.4351 32.9324 16.5723 32.9324C15.7095 32.9324 15.0098 33.6321 15.0098 34.4949V51.4849C15.0098 52.3478 15.7095 53.0475 16.5723 53.0475ZM43.7598 45.3816V49.9225H39.3848V45.3816H43.7598ZM36.2598 40.2097V43.8192V49.9227H31.8848V40.2099H36.2598V40.2097ZM24.3848 36.0575H28.7598V38.6472V49.9225H24.3848V36.0575Z" fill="#2B7AF1"/><path d="M48.8232 63.7451H16.4893C15.6264 63.7451 14.9268 64.4448 14.9268 65.3076 14.9268 66.1704 15.6264 66.8701 16.4893 66.8701H48.8232C49.686 66.8701 50.3857 66.1704 50.3857 65.3076 50.3857 64.4448 49.686 63.7451 48.8232 63.7451zM48.8232 57.4951H22.8223C21.9595 57.4951 21.2598 58.1948 21.2598 59.0576 21.2598 59.9204 21.9595 60.6201 22.8223 60.6201H48.823C49.6859 60.6201 50.3855 59.9204 50.3855 59.0576 50.3855 58.1948 49.686 57.4951 48.8232 57.4951zM16.4893 60.6204C16.9002 60.6204 17.3033 60.4532 17.5938 60.1625 17.8844 59.8719 18.0518 59.4688 18.0518 59.0579 18.0518 58.6469 17.8846 58.2438 17.5938 57.9532 17.3033 57.6627 16.9002 57.4954 16.4893 57.4954 16.0782 57.4954 15.675 57.6625 15.3846 57.9532 15.0939 58.2438 14.9268 58.6469 14.9268 59.0579 14.9268 59.4688 15.0938 59.8719 15.3846 60.1625 15.675 60.453 16.0782 60.6204 16.4893 60.6204zM48.8233 69.9951H16.4893C15.6264 69.9951 14.9268 70.6948 14.9268 71.5576 14.9268 72.4204 15.6264 73.1201 16.4893 73.1201H48.8233C49.6861 73.1201 50.3858 72.4204 50.3858 71.5576 50.3858 70.6948 49.6861 69.9951 48.8233 69.9951zM59.5312 28.7766C59.1203 28.7766 58.7172 28.9438 58.4266 29.2344 58.1359 29.5251 57.9688 29.9282 57.9688 30.3391 57.9688 30.75 58.1358 31.1532 58.4266 31.4438 58.7172 31.7343 59.1203 31.9016 59.5312 31.9016 59.9422 31.9016 60.3453 31.7344 60.6358 31.4438 60.9264 31.1532 61.0938 30.75 61.0938 30.3391 61.0938 29.9282 60.9266 29.5251 60.6358 29.2344 60.3453 28.9438 59.9422 28.7766 59.5312 28.7766z" fill="#FFB039"/></g><defs><linearGradient id="bpaint0_linear_1_2593" x1="14.927" y1="65.308" x2="50.319" y2="63.687" gradientUnits="userSpaceOnUse"><stop stop-color="#FF7A00"/><stop offset="1" stop-color="#FFB039"/></linearGradient><linearGradient id="bpaint1_linear_1_2593" x1="21.26" y1="59.058" x2="50.35" y2="57.964" gradientUnits="userSpaceOnUse"><stop stop-color="#FF7A00"/><stop offset="1" stop-color="#FFB039"/></linearGradient><linearGradient id="bpaint2_linear_1_2593" x1="14.927" y1="59.058" x2="18.052" y2="59.045" gradientUnits="userSpaceOnUse"><stop stop-color="#FF7A00"/><stop offset="1" stop-color="#FFB039"/></linearGradient><linearGradient id="bpaint3_linear_1_2593" x1="14.927" y1="71.558" x2="50.319" y2="69.937" gradientUnits="userSpaceOnUse"><stop stop-color="#FF7A00"/><stop offset="1" stop-color="#FFB039"/></linearGradient><linearGradient id="bpaint4_linear_1_2593" x1="57.969" y1="30.339" x2="61.094" y2="30.326" gradientUnits="userSpaceOnUse"><stop stop-color="#FF7A00"/><stop offset="1" stop-color="#FFB039"/></linearGradient><clipPath id="bclip0_1_2593"><path fill="#fff" d="M0 0H80V80H0z"/></clipPath></defs></symbol><symbol viewBox="0 0 40 40" fill="none" id="facebook"><circle cx="20" cy="20" r="20" fill="#2B7AF1"/><path d="M29 13.8189C29 12.3215 27.6788 11.0002 26.1813 11.0002H14.8186C13.3212 11.0002 12 12.3215 12 13.8189V25.1816C12 26.679 13.3212 28.0002 14.8186 28.0002H20.544V21.5702H18.4301V18.7515H20.544V17.6065C20.544 15.6686 21.9534 13.9951 23.715 13.9951H26.0052V16.8137H23.715C23.4508 16.8137 23.1865 17.078 23.1865 17.6065V18.7515H26.0052V21.5702H23.1865V28.0002H26.1813C27.6788 28.0002 29 26.679 29 25.1816V13.8189Z" fill="#fff"/></symbol><symbol viewBox="0 0 80 80" fill="none" id="home"><g clip-path="url(#dclip0_1_2296)"><path d="M77.2497 26.2012H76.4861L69.3266 6.92538C68.6997 5.23773 67.0691 4.10382 65.2688 4.10382H14.7311C12.9309 4.10382 11.3002 5.23773 10.6733 6.92538L3.51391 26.2012H2.75031C1.23375 26.2012 0 27.4349 0 28.9515V31.1612C0 32.6777 1.23375 33.9115 2.75031 33.9115H3.15688V59.5974C3.15688 60.2446 3.68141 60.7693 4.32875 60.7693C4.97609 60.7693 5.50062 60.2446 5.50062 59.5974V33.9115H23.9006C24.9303 33.9115 25.8984 33.5105 26.6267 32.7823L40 19.4087L53.3736 32.7823C54.1017 33.5104 55.0698 33.9113 56.0995 33.9113H74.4995V37.0182C74.4995 37.6654 75.0241 38.1901 75.6714 38.1901C76.3187 38.1901 76.8433 37.6654 76.8433 37.0182V33.9113H77.2498C78.7663 33.9113 80.0002 32.6776 80.0002 31.161V28.9513C80 27.4349 78.7663 26.2012 77.2497 26.2012ZM12.8703 7.74132C13.1578 6.96741 13.9056 6.44757 14.7311 6.44757H65.2688C66.0942 6.44757 66.842 6.96757 67.1295 7.74132L73.9859 26.2012H57.6964L42.7259 11.2309C41.9978 10.5027 41.0298 10.1016 40 10.1016C38.9702 10.1016 38.0022 10.5026 37.2741 11.2309L22.3036 26.2012H6.01391L12.8703 7.74132ZM77.6562 31.1612C77.6562 31.3854 77.4739 31.5677 77.2497 31.5677H56.0995C55.6958 31.5677 55.3161 31.4105 55.0308 31.1251L40.8286 16.9229C40.6088 16.703 40.3108 16.5796 39.9998 16.5796C39.6889 16.5796 39.3911 16.703 39.1711 16.9229L24.9691 31.1251C24.6836 31.4105 24.3039 31.5677 23.9002 31.5677H2.75031C2.52609 31.5677 2.34375 31.3854 2.34375 31.1612V28.9515C2.34375 28.7273 2.52609 28.5449 2.75031 28.5449H22.7891C23.0998 28.5449 23.3978 28.4215 23.6178 28.2016L38.9316 12.888C39.2169 12.6026 39.5964 12.4454 40.0002 12.4454C40.4039 12.4454 40.7834 12.6026 41.0687 12.888L56.3825 28.2016C56.6023 28.4215 56.9003 28.5449 57.2113 28.5449H77.25C77.4742 28.5449 77.6566 28.7273 77.6566 28.9515V31.1612H77.6562Z" fill="#2B7AF1"/><path d="M70.4626 66.426C71.11 66.426 71.6345 65.9013 71.6345 65.2541V44.4196C71.6345 43.7724 71.11 43.2477 70.4626 43.2477H54.6787C54.0314 43.2477 53.5068 43.7724 53.5068 44.4196V65.2541C53.5068 65.9013 54.0314 66.426 54.6787 66.426H70.4626zM69.2907 59.0315H63.7425V53.4834H69.2907V59.0315zM61.3987 59.0315H55.8506V53.4834H61.3987V59.0315zM69.2907 64.0823H55.8506V61.3752H69.2907V64.0823zM69.2907 51.1394H63.7425V45.5913H69.2907V51.1394zM61.3987 45.5915V51.1396H55.8506V45.5915H61.3987zM25.321 66.426C25.9684 66.426 26.4929 65.9013 26.4929 65.2541V44.4196C26.4929 43.7724 25.9684 43.2477 25.321 43.2477H9.53711C8.88977 43.2477 8.36523 43.7724 8.36523 44.4196V65.2541C8.36523 65.9013 8.88977 66.426 9.53711 66.426H25.321zM24.1491 59.0315H18.601V53.4834H24.1491V59.0315zM16.2573 59.0315H10.709V53.4834H16.2573V59.0315zM24.1491 64.0823H10.709V61.3752H24.1491V64.0823zM24.1491 51.1394H18.601V45.5913H24.1491V51.1394zM16.2573 45.5915V51.1396H10.709V45.5915H16.2573z" fill="#2B7AF1"/><path d="M43.7882 48.2985H36.2119C35.5646 48.2985 35.04 48.8232 35.04 49.4704V54.5212C35.04 55.1684 35.5646 55.6931 36.2119 55.6931H43.7882C44.4355 55.6931 44.96 55.1684 44.96 54.5212V49.4704C44.96 48.8232 44.4355 48.2985 43.7882 48.2985zM42.6163 53.3493H37.3838V50.6423H42.6163V53.3493zM46.2226 33.5287C46.2226 30.0977 43.4312 27.3061 40 27.3061 36.5687 27.3061 33.7773 30.0977 33.7773 33.5287 33.7773 36.9598 36.5687 39.7516 40 39.7516 43.4312 39.7516 46.2226 36.96 46.2226 33.5287zM36.1211 33.5287C36.1211 31.39 37.8612 29.6498 40 29.6498 42.1387 29.6498 43.8789 31.39 43.8789 33.5287 43.8789 35.6675 42.1387 37.4078 40 37.4078 37.8612 37.4078 36.1211 35.6677 36.1211 33.5287z" fill="#FFB039"/><path d="M78.8281 68.1859H76.8433V42.5C76.8433 41.8528 76.3187 41.3281 75.6714 41.3281C75.0241 41.3281 74.4995 41.8528 74.4995 42.5V68.1859H50.0108V44.4195C50.0108 43.7723 49.4863 43.2477 48.8389 43.2477H31.1611C30.5138 43.2477 29.9892 43.7723 29.9892 44.4195V68.1859H5.50047V65.0791C5.50047 64.4319 4.97594 63.9072 4.32859 63.9072C3.68125 63.9072 3.15672 64.4319 3.15672 65.0791V68.1859H1.17188C0.524531 68.1859 0 68.7106 0 69.3578V74.7244C0 75.3716 0.524531 75.8962 1.17188 75.8962H78.8281C79.4755 75.8962 80 75.3716 80 74.7244V69.3578C80 68.7106 79.4755 68.1859 78.8281 68.1859ZM32.333 59.6389H34.0023C34.6497 59.6389 35.1742 59.1142 35.1742 58.467C35.1742 57.8198 34.6497 57.2952 34.0023 57.2952H32.333V45.5914H47.6672V68.1859H32.333V59.6389ZM77.6562 73.5525H2.34375V70.5297H77.6562V73.5525Z" fill="#2B7AF1"/></g><defs><linearGradient id="dpaint0_linear_1_2296" x1="35.04" y1="51.996" x2="44.962" y2="51.942" gradientUnits="userSpaceOnUse"><stop stop-color="#FF7A00"/><stop offset="1" stop-color="#FFB039"/></linearGradient><linearGradient id="dpaint1_linear_1_2296" x1="33.777" y1="33.529" x2="46.225" y2="33.479" gradientUnits="userSpaceOnUse"><stop stop-color="#FF7A00"/><stop offset="1" stop-color="#FFB039"/></linearGradient><clipPath id="dclip0_1_2296"><path fill="#fff" d="M0 0H80V80H0z"/></clipPath></defs></symbol><symbol viewBox="0 0 40 41" fill="none" id="instagram"><circle cx="20" cy="20.355" r="20" fill="#2B7AF1"/><path d="M26.5808 12.3545H14.4192C13.0462 12.3545 12 13.4006 12 14.7737V26.9353C12 28.3083 13.0462 29.3545 14.4192 29.3545H26.5808C27.9538 29.3545 29 28.3083 29 26.9353V14.7737C29 13.4006 27.9538 12.3545 26.5808 12.3545ZM20.5 25.9545C23.3115 25.9545 25.6 23.7314 25.6 21.0506C25.6 20.593 25.5346 20.0699 25.4038 19.6776H26.8423V26.6083C26.8423 26.9353 26.5808 27.2622 26.1885 27.2622H14.8115C14.4846 27.2622 14.1577 27.0006 14.1577 26.6083V19.6122H15.6615C15.5308 20.0699 15.4654 20.5276 15.4654 20.9853C15.4 23.7314 17.6885 25.9545 20.5 25.9545ZM20.5 23.993C18.6692 23.993 17.2308 22.5545 17.2308 20.7891C17.2308 19.0237 18.6692 17.5853 20.5 17.5853C22.3308 17.5853 23.7692 19.0237 23.7692 20.7891C23.7692 22.6199 22.3308 23.993 20.5 23.993ZM26.7769 16.9968C26.7769 17.3891 26.45 17.716 26.0577 17.716H24.2269C23.8346 17.716 23.5077 17.3891 23.5077 16.9968V15.2314C23.5077 14.8391 23.8346 14.5122 24.2269 14.5122H26.0577C26.45 14.5122 26.7769 14.8391 26.7769 15.2314V16.9968Z" fill="#fff"/></symbol><symbol viewBox="0 0 136 54" fill="none" id="logo"><path d="M117.452.244873V3.91317H128.09C128.47 3.91317 128.871 3.96748 129.292 4.07608 129.713 4.18499 130.087 4.44284 130.413 4.85056 130.685 5.17668 130.855 5.51616 130.923 5.86957 130.991 6.22269 131.025 6.56245 131.025 6.88857V8.39659H121.65C121.08 8.39659 120.448 8.45773 119.755 8.57998 119.062 8.70224 118.376 9.06218 117.696 9.66011 116.881 10.3666 116.372 11.1818 116.168 12.1055 115.964 13.0296 115.862 13.967 115.862 14.918 115.862 15.3255 115.876 15.7875 115.903 16.3038 115.93 16.8201 116.005 17.3498 116.127 17.8934 116.25 18.4368 116.44 18.9599 116.698 19.4626 116.956 19.9653 117.302 20.4068 117.737 20.7872 118.362 21.3306 119.021 21.643 119.714 21.7246 120.407 21.8062 121.052 21.8469 121.65 21.8469H131.962C132.478 21.8469 133.008 21.7994 133.551 21.7042 134.095 21.6092 134.557 21.3715 134.937 20.9911 135.318 20.6107 135.556 20.1487 135.651 19.605 135.746 19.0617 135.793 18.5997 135.793 18.2193V7.01083C135.793 5.78797 135.644 4.74879 135.345 3.89269 135.046 3.0369 134.666 2.37784 134.204 1.91581 133.715 1.39978 133.076.992073 132.288.693256 131.5.394143 130.644.244873 129.72.244873H117.452zM131.025 12.0649V17.0374C131.025 17.2006 131.011 17.3566 130.984 17.5062 130.957 17.6555 130.862 17.7982 130.698 17.9341 130.535 18.07 130.352 18.1448 130.148 18.1581 129.944 18.1718 129.775 18.1786 129.639 18.1786H122.995C122.696 18.1786 122.404 18.1107 122.119 17.9747 121.834 17.8388 121.609 17.6896 121.446 17.5264 121.148 17.2276 120.964 16.8335 120.896 16.3445 120.828 15.8554 120.794 15.4477 120.794 15.1216 120.794 14.3338 120.862 13.7768 120.998 13.4507 121.134 13.1245 121.242 12.907 121.324 12.7984 121.596 12.4453 121.915 12.2346 122.282 12.1667 122.649 12.0987 122.914 12.0649 123.077 12.0649H131.025zM92.8333 18.1782H90.877V21.8465H115.21V18.1782H113.294L106.528 2.11931C106.311 1.57598 105.965 1.08695 105.489.651928 105.014.217205 104.205 0 103.064 0 101.95 0 101.148.203566 100.659.611286 100.17 1.01901 99.8032 1.52168 99.5587 2.11931L92.8333 18.1782zM102.616 4.76859C102.67 4.63268 102.738 4.50361 102.819 4.38135 102.901 4.25909 102.982 4.19796 103.064 4.19796 103.2 4.19796 103.288 4.26592 103.329 4.40182 103.37 4.53773 103.417 4.65998 103.471 4.76859L108.648 18.1782H97.48L102.616 4.76859zM89.6542 21.8469V.244873H84.8855V8.88562H74.5736V.244873H69.8047V21.8469H74.5736V12.5539H84.8855V21.8469H89.6542zM66.4221 21.8467V18.1784H55.8656C55.4309 18.1784 54.9893 18.1511 54.5409 18.0968 54.0925 18.0425 53.6644 17.9271 53.2569 17.7505 52.8492 17.574 52.4961 17.3158 52.1973 16.976 51.8981 16.6363 51.6673 16.1814 51.5044 15.6107 51.4228 15.2846 51.3549 14.8226 51.3006 14.225 51.2462 13.627 51.2189 13.0971 51.2189 12.6353H63.7728C64.2075 12.6353 64.6217 12.581 65.0158 12.4721 65.4099 12.3635 65.7698 12.1463 66.096 11.8202 66.5577 11.3582 66.8431 10.835 66.9517 10.251 67.0604 9.66675 67.115 9.10295 67.115 8.55933 67.115 7.88009 67.074 7.20767 66.9927 6.54179 66.9111 5.8762 66.7547 5.23763 66.5239 4.62634 66.293 4.01477 65.9805 3.45097 65.5865 2.93464 65.1924 2.41832 64.6829 1.95658 64.058 1.54886 63.0526.923931 61.9318.536682 60.6953.387422 59.4591.237866 58.2024.163086 56.9252.163086 56.4089.163086 55.8113.176739 55.1317.203743 54.4525.231043 53.746.305823 53.0124.428079 52.2786.550336 51.5519.747368 50.8317 1.01918 50.1118 1.2907 49.4528 1.68477 48.8551 2.2011 48.2572 2.71742 47.7883 3.28805 47.4489 3.91298 47.1091 4.53792 46.8509 5.22397 46.6744 5.97116 46.4978 6.71835 46.3892 7.5338 46.3483 8.4169 46.3076 9.29999 46.2871 10.2442 46.2871 11.2496 46.2871 12.6896 46.3687 14.1027 46.5316 15.4885 46.6948 16.8742 47.1296 18.0835 47.8361 19.1158 48.2708 19.7408 48.7599 20.2366 49.3032 20.6037 49.8468 20.9704 50.4038 21.2488 50.9744 21.439 51.5451 21.6292 52.1293 21.7449 52.7269 21.7856 53.3249 21.8262 53.8955 21.8467 54.4389 21.8467H66.4221zM51.2189 8.96704C51.2462 8.2605 51.2937 7.60146 51.3616 6.99017 51.4296 6.37889 51.7079 5.80143 52.1973 5.2581 52.5234 4.90469 52.8833 4.62634 53.2774 4.42248 53.6712 4.21862 54.0721 4.07589 54.4798 3.99459 54.8872 3.91298 55.2813 3.8655 55.6617 3.85185 56.0421 3.8382 56.3953 3.83138 56.7214 3.83138 57.4006 3.83138 58.1003 3.87886 58.8205 3.97411 59.5404 4.06907 60.1994 4.34771 60.7974 4.80973 61.1505 5.08125 61.4698 5.46167 61.7549 5.95099 62.0404 6.44002 62.1832 7.0243 62.1832 7.70354 62.1832 8.00235 62.122 8.28781 61.9997 8.55933 61.8775 8.83114 61.5852 8.96704 61.1232 8.96704H51.2189zM2.47197.244873V3.91317H13.1101C13.4905 3.91317 13.8911 3.96748 14.3124 4.07608 14.7335 4.18499 15.1071 4.44284 15.4332 4.85056 15.705 5.17668 15.8748 5.51616 15.9427 5.86957 16.0107 6.22269 16.0445 6.56245 16.0445 6.88857V8.39659H6.67019C6.09956 8.39659 5.46783 8.45773 4.77494 8.57998 4.08205 8.70224 3.39566 9.06218 2.71643 9.66011 1.90128 10.3666 1.39179 11.1818 1.18793 12.1055.984368 13.0296.882324 13.967.882324 14.918.882324 15.3255.895942 15.7875.923242 16.3038.950245 16.8201 1.02505 17.3498 1.1473 17.8934 1.26956 18.4368 1.45978 18.9599 1.71795 19.4626 1.97611 19.9653 2.32238 20.4068 2.7574 20.7872 3.38234 21.3306 4.04108 21.643 4.73396 21.7246 5.42685 21.8062 6.07226 21.8469 6.67019 21.8469H16.9819C17.4982 21.8469 18.0282 21.7994 18.5715 21.7042 19.1151 21.6092 19.5769 21.3715 19.9573 20.9911 20.3377 20.6107 20.5757 20.1487 20.6707 19.605 20.7659 19.0617 20.8134 18.5997 20.8134 18.2193V7.01083C20.8134 5.78797 20.6638 4.74879 20.365 3.89269 20.0662 3.0369 19.6858 2.37784 19.2238 1.91581 18.7347 1.39978 18.0961.992073 17.308.693256 16.5202.394143 15.6641.244873 14.7403.244873H2.47197zM16.0445 12.0649V17.0374C16.0445 17.2006 16.0312 17.3566 16.0039 17.5062 15.9766 17.6555 15.8816 17.7982 15.7184 17.9341 15.5554 18.07 15.3721 18.1448 15.1682 18.1581 14.9644 18.1718 14.7946 18.1786 14.6587 18.1786H8.01502C7.7162 18.1786 7.42423 18.1107 7.13877 17.9747 6.8536 17.8388 6.62926 17.6896 6.46635 17.5264 6.16754 17.2276 5.98382 16.8335 5.91617 16.3445 5.84821 15.8554 5.81411 15.4477 5.81411 15.1216 5.81411 14.3338 5.88209 13.7768 6.018 13.4507 6.1539 13.1245 6.26246 12.907 6.34406 12.7984 6.61558 12.4453 6.93491 12.2346 7.30197 12.1667 7.66874 12.0987 7.93371 12.0649 8.09662 12.0649H16.0445z" fill="#2B7AF1"/><path fill-rule="evenodd" clip-rule="evenodd" d="M5.93478 27.3057H129.695C132.959 27.3057 135.63 29.9763 135.63 33.2404V48.0649C135.63 51.3291 132.959 53.9997 129.695 53.9997H5.93478C2.67065 53.9997 0 51.3291 0 48.0649V33.2404C0 29.9763 2.67065 27.3057 5.93478 27.3057Z" fill="#FF7D03"/><path d="M19.3169 47.3347L14.1791 41.9697C14.088 41.8786 13.9934 41.7459 13.8949 41.5717 13.7963 41.3973 13.7471 41.2498 13.7471 41.1284 13.7471 40.9314 13.8153 40.7456 13.9515 40.5714 14.088 40.3973 14.2094 40.2569 14.3153 40.151L18.8848 35.2859H15.7249L11.8829 39.5599C11.7162 39.7569 11.5343 39.9916 11.3373 40.2646 11.1402 40.5373 11.0417 40.8252 11.0417 41.1284 11.0417 41.4314 11.1213 41.7044 11.2806 41.9468 11.4397 42.1893 11.5874 42.3863 11.7239 42.5379L16.1115 47.3347H19.3169zM10.5189 47.3347V35.2859H7.85889V47.3347H10.5189zM28.5469 41.083C28.8499 41.0527 29.1229 40.9729 29.3653 40.8441 29.6078 40.7154 29.8125 40.5602 29.979 40.3783 30.2217 40.1053 30.3731 39.7833 30.4339 39.4121 30.4944 39.0406 30.5247 38.6957 30.5247 38.3776 30.5247 38.0895 30.4944 37.7334 30.4339 37.3091 30.3731 36.8848 30.1912 36.4984 29.8882 36.1497 29.7063 35.9376 29.498 35.7747 29.263 35.661 29.028 35.5473 28.7894 35.4601 28.5469 35.3996 28.3045 35.3387 28.0618 35.3046 27.8193 35.2972 27.5769 35.2895 27.357 35.2859 27.1603 35.2859H21.7041C21.4463 35.2859 21.1775 35.3123 20.897 35.3654 20.6166 35.4186 20.3474 35.5509 20.0899 35.7631 19.8323 35.9755 19.6768 36.2103 19.624 36.4678 19.5709 36.7257 19.5442 36.9604 19.5442 37.1726V45.5614C19.5442 45.7584 19.567 45.9857 19.6124 46.2436 19.6581 46.5012 19.7869 46.7208 19.9991 46.9027 20.2112 47.0997 20.4649 47.2211 20.7605 47.2665 21.056 47.3119 21.3326 47.3347 21.5905 47.3347H27.3194C27.668 47.3347 28.0695 47.3006 28.5241 47.2323 28.9787 47.1641 29.3879 46.9484 29.7517 46.5846 29.9487 46.3875 30.1004 46.1676 30.2066 45.9252 30.3125 45.6828 30.3921 45.4403 30.4452 45.1976 30.4983 44.9552 30.5324 44.724 30.5476 44.5044 30.5627 44.2845 30.5701 44.0914 30.5701 43.9246 30.5701 43.6065 30.5437 43.2691 30.4906 42.913 30.4375 42.5569 30.2897 42.2272 30.0473 41.924 29.9111 41.7575 29.714 41.5943 29.4562 41.4352 29.1986 41.2762 28.8956 41.1738 28.5469 41.1284V41.083zM22.2041 40.0827V37.923C22.2041 37.8471 22.2118 37.7714 22.227 37.6957 22.2421 37.6198 22.2875 37.5441 22.3632 37.4681 22.4391 37.3925 22.5226 37.3509 22.6134 37.3432 22.7045 37.3355 22.7875 37.3319 22.8635 37.3319H26.3645C26.5464 37.3319 26.7282 37.3471 26.9101 37.3773 27.092 37.4076 27.2585 37.491 27.4101 37.6275 27.5769 37.7788 27.6793 37.9533 27.717 38.1503 27.755 38.3474 27.774 38.5367 27.774 38.7186 27.774 38.8854 27.755 39.0557 27.717 39.2302 27.6793 39.4044 27.5846 39.5673 27.433 39.7189 27.2662 39.8857 27.0804 39.988 26.876 40.0257 26.6712 40.0637 26.4858 40.0827 26.319 40.0827H22.2041zM22.2041 42.1287H26.3645C26.5161 42.1287 26.7015 42.1477 26.9214 42.1854 27.1413 42.2234 27.3345 42.3332 27.5012 42.5151 27.6526 42.6818 27.7437 42.8676 27.774 43.0721 27.8042 43.2768 27.8193 43.47 27.8193 43.6519 27.8193 43.8489 27.8004 44.0685 27.7627 44.3112 27.7247 44.5537 27.6223 44.7581 27.4556 44.9249 27.2891 45.0917 27.092 45.194 26.8647 45.2317 26.6371 45.2697 26.4249 45.2887 26.2279 45.2887H22.9089C22.803 45.2887 22.7006 45.281 22.6021 45.2658 22.5036 45.2507 22.4163 45.1976 22.3406 45.1068 22.2952 45.0311 22.2611 44.9439 22.2383 44.8454 22.2154 44.7468 22.2041 44.6522 22.2041 44.5611V42.1287zM32.639 35.2859V37.3319H38.5725C38.7847 37.3319 39.0082 37.3622 39.2432 37.4227 39.4779 37.4833 39.6865 37.6275 39.8681 37.8548 40.0197 38.0367 40.1144 38.226 40.1524 38.423 40.1904 38.6201 40.2094 38.8094 40.2094 38.9913V39.8326H34.9806C34.6622 39.8326 34.3099 39.8667 33.9232 39.9349 33.5369 40.0032 33.1541 40.2038 32.7752 40.5373 32.3206 40.9314 32.0366 41.386 31.9229 41.9014 31.809 42.4166 31.7523 42.9394 31.7523 43.47 31.7523 43.6973 31.7598 43.9549 31.7752 44.243 31.7903 44.5308 31.8318 44.8264 31.9001 45.1296 31.9683 45.4326 32.0743 45.7243 32.2182 46.0047 32.3624 46.2852 32.5556 46.5314 32.798 46.7436 33.1467 47.0469 33.5141 47.2211 33.9007 47.2665 34.2871 47.3119 34.647 47.3347 34.9806 47.3347H40.7323C41.0201 47.3347 41.3156 47.3083 41.6189 47.2552 41.9218 47.2021 42.1794 47.0694 42.3916 46.8573 42.6038 46.6451 42.7364 46.3875 42.7895 46.0843 42.8427 45.7813 42.8691 45.5237 42.8691 45.3115V39.0595C42.8691 38.3776 42.7857 37.7978 42.6189 37.3204 42.4525 36.8432 42.2402 36.4755 41.9824 36.218 41.7097 35.9298 41.3536 35.7025 40.9141 35.5358 40.4744 35.3693 39.9972 35.2859 39.4818 35.2859H32.639zM40.2094 41.8786V44.6522C40.2094 44.743 40.2017 44.8302 40.1865 44.9136 40.1714 44.997 40.1183 45.0765 40.0275 45.1522 39.9364 45.2282 39.834 45.2697 39.7204 45.2774 39.6067 45.2848 39.5121 45.2887 39.4364 45.2887H35.7307C35.5639 45.2887 35.4011 45.2507 35.242 45.1751 35.0829 45.0991 34.9577 45.016 34.8669 44.9249 34.7001 44.7581 34.5978 44.5385 34.5598 44.2655 34.5221 43.9928 34.5031 43.7655 34.5031 43.5836 34.5031 43.1442 34.5411 42.8335 34.6168 42.6516 34.6924 42.4697 34.7532 42.3483 34.7986 42.2878 34.9503 42.0907 35.1283 41.9732 35.3328 41.9355 35.5375 41.8976 35.6853 41.8786 35.7761 41.8786H40.2094zM47.3477 47.3347H50.7125C51.0155 47.3347 51.3528 47.3234 51.7241 47.3006 52.0953 47.2777 52.4742 47.2098 52.8605 47.0961 53.2472 46.9825 53.6184 46.808 53.9745 46.573 54.3309 46.3383 54.6529 46.0163 54.9407 45.6068 55.1532 45.3038 55.3235 44.9703 55.4523 44.6068 55.5811 44.243 55.6796 43.8641 55.7478 43.47 55.8161 43.0759 55.8579 42.6744 55.8731 42.2652 55.8882 41.856 55.8956 41.4542 55.8956 41.0602 55.8956 40.7266 55.8882 40.3667 55.8731 39.9803 55.8579 39.594 55.8087 39.2035 55.7253 38.8094 55.6419 38.4156 55.5131 38.029 55.3387 37.65 55.1645 37.2711 54.9256 36.9227 54.6226 36.6043 54.3348 36.3014 54.0238 36.0625 53.6905 35.8883 53.357 35.7138 53.0273 35.5815 52.7015 35.4904 52.3757 35.3996 52.0727 35.3426 51.7923 35.32 51.5119 35.2972 51.273 35.2859 51.076 35.2859H46.8703C46.643 35.2859 46.3929 35.3085 46.1202 35.3539 45.8475 35.3996 45.5973 35.5055 45.37 35.6723 45.2183 35.7936 45.0667 35.9717 44.9153 36.2064 44.7637 36.4414 44.6878 36.756 44.6878 37.15V51.1995H47.3477V47.3347zM47.3477 45.2887V37.9002C47.3477 37.7486 47.4083 37.6124 47.5297 37.491 47.5751 37.4607 47.632 37.4266 47.7003 37.3886 47.7682 37.3509 47.8326 37.3319 47.8935 37.3319H50.5077C51.0988 37.3319 51.5914 37.4607 51.9855 37.7183 52.3796 37.9759 52.66 38.3017 52.8267 38.6958 52.9024 38.8625 52.9745 39.1317 53.0425 39.5029 53.1107 39.8741 53.1448 40.4691 53.1448 41.2875 53.1448 42.1818 53.0917 42.8409 52.9858 43.2652 52.8796 43.6899 52.7659 43.9928 52.6448 44.1747 52.4932 44.4172 52.2431 44.6635 51.8944 44.9136 51.546 45.1638 51.0383 45.2887 50.3712 45.2887H47.3477zM63.6705 47.3347V37.3319H68.1945V35.2859H56.4867V37.3319H61.0108V47.3347H63.6705zM80.9027 47.3347V36.991C80.9027 36.5361 80.8271 36.1877 80.6754 35.945 80.5238 35.7025 80.3535 35.5206 80.1638 35.3996 79.9745 35.2782 79.7813 35.2061 79.5843 35.1836 79.3872 35.1607 79.2431 35.1494 79.1523 35.1494 78.8796 35.1494 78.5992 35.1987 78.311 35.2972 78.0232 35.3957 77.7579 35.6192 77.5154 35.9678L72.1501 43.8563C72.1047 43.9323 72.0593 44.0041 72.0139 44.0724 71.9685 44.1406 71.9076 44.1747 71.832 44.1747 71.7409 44.1747 71.6881 44.1483 71.6729 44.0952 71.6578 44.0421 71.6501 43.9626 71.6501 43.8563L71.7637 35.2859H69.1038V45.7662C69.1038 45.9329 69.1227 46.1145 69.1607 46.3116 69.1987 46.5086 69.2783 46.6905 69.3993 46.8573 69.5207 47.024 69.6949 47.168 69.9225 47.2893 70.1498 47.4104 70.4605 47.4712 70.8545 47.4712 71.3091 47.4712 71.6578 47.3917 71.9002 47.2323 72.1427 47.0733 72.37 46.8347 72.5822 46.5163L77.8792 38.764C77.97 38.6278 78.0383 38.5405 78.0837 38.5026 78.1291 38.4649 78.1671 38.4459 78.1974 38.4459 78.2885 38.4459 78.3339 38.4762 78.3339 38.5367 78.3339 38.5972 78.3339 38.6732 78.3339 38.764L78.243 47.3347H80.9027zM85.3814 47.3347H88.7461C89.0491 47.3347 89.3865 47.3234 89.7577 47.3006 90.129 47.2777 90.5079 47.2098 90.8942 47.0961 91.2809 46.9825 91.6521 46.808 92.0082 46.573 92.3646 46.3383 92.6865 46.0163 92.9743 45.6068 93.1868 45.3038 93.3571 44.9703 93.4859 44.6068 93.6147 44.243 93.7133 43.8641 93.7815 43.47 93.8498 43.0759 93.8916 42.6744 93.9067 42.2652 93.9218 41.856 93.9292 41.4542 93.9292 41.0602 93.9292 40.7266 93.9218 40.3667 93.9067 39.9803 93.8916 39.594 93.8423 39.2035 93.759 38.8094 93.6756 38.4156 93.5468 38.029 93.3723 37.65 93.1981 37.2711 92.9592 36.9227 92.6563 36.6043 92.3684 36.3014 92.0574 36.0625 91.7242 35.8883 91.3907 35.7138 91.061 35.5815 90.7352 35.4904 90.4094 35.3996 90.1064 35.3426 89.826 35.32 89.5455 35.2972 89.3066 35.2859 89.1096 35.2859H84.904C84.6767 35.2859 84.4265 35.3085 84.1538 35.3539 83.8811 35.3996 83.6309 35.5055 83.4036 35.6723 83.252 35.7936 83.1004 35.9717 82.949 36.2064 82.7974 36.4414 82.7214 36.756 82.7214 37.15V51.1995H85.3814V47.3347zM85.3814 45.2887V37.9002C85.3814 37.7486 85.4419 37.6124 85.5633 37.491 85.6087 37.4607 85.6657 37.4266 85.7339 37.3886 85.8019 37.3509 85.8662 37.3319 85.9271 37.3319H88.5414C89.1325 37.3319 89.6251 37.4607 90.0191 37.7183 90.4132 37.9759 90.6936 38.3017 90.8604 38.6958 90.936 38.8625 91.0082 39.1317 91.0761 39.5029 91.1444 39.8741 91.1785 40.4691 91.1785 41.2875 91.1785 42.1818 91.1254 42.8409 91.0195 43.2652 90.9132 43.6899 90.7996 43.9928 90.6785 44.1747 90.5269 44.4172 90.2767 44.6635 89.928 44.9136 89.5796 45.1638 89.0719 45.2887 88.4048 45.2887H85.3814zM100.258 49.3883H108.968C109.198 49.3883 109.449 49.3841 109.72 49.3758 109.992 49.3678 110.275 49.3307 110.572 49.2648 110.868 49.1989 111.159 49.1004 111.448 48.9687 111.735 48.8372 112.003 48.6479 112.249 48.4013 112.513 48.1381 112.726 47.8336 112.891 47.4882 113.055 47.1428 113.175 46.7808 113.249 46.4025 113.323 46.0241 113.372 45.6336 113.397 45.2306 113.421 44.8277 113.434 44.4286 113.434 44.0339 113.434 43.4416 113.393 42.8413 113.31 42.2327 113.228 41.6241 112.973 41.0481 112.545 40.5054 112.118 39.9626 111.653 39.6089 111.151 39.4442 110.65 39.2798 110.136 39.1976 109.609 39.1976H104.847C104.666 39.1976 104.46 39.1772 104.23 39.1359 104 39.0947 103.819 39.0083 103.687 38.8769 103.556 38.7288 103.477 38.5478 103.453 38.3338 103.428 38.1202 103.416 37.9229 103.416 37.7418V35.5949C103.416 35.4964 103.42 35.3813 103.428 35.2495 103.436 35.1181 103.482 35.0113 103.564 34.9288 103.63 34.8466 103.724 34.789 103.847 34.756 103.971 34.7231 104.098 34.7068 104.23 34.7068H112.866V32.116H102.453C102.371 32.116 102.26 32.1201 102.12 32.1281 101.981 32.1364 101.828 32.1611 101.664 32.2023 101.499 32.2436 101.335 32.305 101.17 32.3875 101.006 32.4697 100.849 32.5848 100.701 32.7329 100.57 32.8643 100.446 33.0578 100.331 33.3127 100.216 33.5676 100.159 33.9089 100.159 34.3368V38.7042C100.159 38.8522 100.167 39.0371 100.183 39.2594 100.2 39.4813 100.237 39.7157 100.294 39.9626 100.352 40.2092 100.446 40.452 100.578 40.6905 100.71 40.9288 100.899 41.1303 101.146 41.295 101.31 41.4265 101.503 41.5253 101.725 41.5911 101.948 41.6567 102.17 41.7021 102.392 41.7268 102.614 41.7514 102.832 41.768 103.046 41.776 103.26 41.7843 103.449 41.7885 103.613 41.7885H108.203C108.663 41.7885 109.009 41.8624 109.239 42.0104 109.469 42.1585 109.626 42.2983 109.708 42.43 109.872 42.6603 109.975 42.9481 110.016 43.2935 110.057 43.6389 110.078 43.9268 110.078 44.1573 110.078 44.4861 110.049 44.8357 109.992 45.206 109.934 45.5761 109.839 45.8597 109.708 46.0571 109.477 46.4025 109.19 46.6123 108.844 46.6865 108.499 46.7603 108.203 46.7974 107.956 46.7974H100.258V49.3883zM116.197 49.3883H123.97C124.233 49.3883 124.546 49.3758 124.908 49.3512 125.27 49.3265 125.64 49.2485 126.018 49.1167 126.396 48.9853 126.766 48.7755 127.128 48.4877 127.49 48.1998 127.803 47.7927 128.066 47.2663 128.329 46.7399 128.494 46.1722 128.56 45.5636 128.625 44.955 128.658 44.3381 128.658 43.7131V36.7549C128.658 36.327 128.613 35.846 128.522 35.3112 128.432 34.7768 128.222 34.2709 127.893 33.7937 127.63 33.3991 127.326 33.0905 126.98 32.8685 126.635 32.6465 126.273 32.4818 125.895 32.375 125.516 32.2682 125.134 32.1982 124.747 32.1652 124.361 32.1323 124.003 32.116 123.674 32.116H120.195C119.652 32.116 119.064 32.1735 118.43 32.2887 117.797 32.4038 117.226 32.6916 116.716 33.1522 116.403 33.4483 116.16 33.7774 115.988 34.1391 115.815 34.5011 115.683 34.8753 115.593 35.262 115.502 35.6486 115.449 36.027 115.432 36.397 115.416 36.7671 115.408 37.1003 115.408 37.3964 115.408 38.1202 115.457 38.8276 115.556 39.5184 115.655 40.2092 115.943 40.8345 116.419 41.3935 116.666 41.6897 116.934 41.9241 117.221 42.0968 117.509 42.2695 117.793 42.3971 118.073 42.4793 118.352 42.5615 118.611 42.6152 118.85 42.6398 119.089 42.6644 119.282 42.6766 119.43 42.6766H125.401V44.1324C125.401 44.4122 125.372 44.7618 125.315 45.1811 125.257 45.6007 125.089 45.9502 124.809 46.2298 124.529 46.5096 124.208 46.674 123.846 46.7232 123.485 46.7728 123.164 46.7974 122.884 46.7974H116.197V49.3883zM125.401 40.0858H121.404C121.289 40.0858 121.145 40.0816 120.972 40.0736 120.799 40.0653 120.618 40.0407 120.429 39.9994 120.24 39.9585 120.055 39.9051 119.874 39.8392 119.693 39.7733 119.537 39.6828 119.405 39.5677 119.175 39.3374 119.01 39.0249 118.912 38.63 118.813 38.2353 118.764 37.8487 118.764 37.4703 118.764 36.8617 118.834 36.3887 118.973 36.0516 119.113 35.7142 119.273 35.4635 119.454 35.2991 119.619 35.1344 119.837 34.9946 120.108 34.8795 120.38 34.7644 120.738 34.7068 121.182 34.7068H123.18C123.608 34.7068 123.958 34.7685 124.229 34.892 124.501 35.0151 124.71 35.151 124.858 35.2991 125.122 35.5623 125.278 35.8623 125.327 36.1997 125.376 36.5368 125.401 36.8041 125.401 37.0015V40.0858z" fill="#fff"/><path d="M28.843 13.6952H38.2164C38.787 13.6952 39.4188 13.6341 40.1117 13.5118C40.8046 13.3895 41.4909 13.0296 42.1702 12.4317C42.9853 11.7251 43.4948 10.91 43.6987 9.98623C43.9022 9.06219 44.0043 8.12478 44.0043 7.17373C44.0043 6.76631 43.9906 6.3043 43.9633 5.78797C43.9363 5.27164 43.8616 4.74195 43.7393 4.19833C43.6171 3.655 43.4269 3.13185 43.1687 2.62917C42.9105 2.1265 42.5643 1.68495 42.1292 1.30453C41.5043 0.761198 40.8455 0.448736 40.1526 0.367133C39.4597 0.28553 38.8143 0.244873 38.2164 0.244873H27.9047C27.3884 0.244873 26.8585 0.292353 26.3151 0.387606C25.7715 0.482563 25.3097 0.720259 24.9293 1.10068C24.5489 1.4811 24.3109 1.94312 24.216 2.48675C24.1207 3.03008 24.0732 3.49209 24.0732 3.87251V15.0809L24.0741 15.1575V21.8469H28.843V13.6952ZM28.8421 10.0269V5.05442C28.8421 4.89122 28.8555 4.73514 28.8828 4.58558C28.9101 4.43632 29.005 4.29359 29.1682 4.15769C29.3311 4.02178 29.5146 3.94699 29.7184 3.93364C29.9223 3.91999 30.092 3.91317 30.2279 3.91317H36.8716C37.1704 3.91317 37.4624 3.98112 37.7479 4.11703C38.033 4.25294 38.2574 4.40219 38.4203 4.5654C38.7191 4.86421 38.9028 5.25829 38.9704 5.74731C39.0384 6.23634 39.0725 6.64406 39.0725 6.97017C39.0725 7.75802 39.0046 8.315 38.8686 8.64111C38.7327 8.96723 38.6241 9.18474 38.5425 9.29335C38.271 9.64647 37.9517 9.85715 37.5847 9.9251C37.2179 9.99306 36.9529 10.0269 36.79 10.0269H28.8421Z" fill="#2B7AF1"/></symbol><symbol viewBox="0 0 80 80" fill="none" id="money"><g clip-path="url(#gclip0_1_2560)"><path d="M53.4302 51.3059C51.5347 51.3059 49.9927 49.9712 49.9927 48.3307C49.9927 46.6901 51.5347 45.3554 53.4302 45.3554C55.3256 45.3554 56.8677 46.6901 56.8677 48.3307C56.8677 49.1935 57.5673 49.8932 58.4302 49.8932C59.293 49.8932 59.9927 49.1935 59.9927 48.3307C59.9927 45.4675 57.8592 43.06 54.9927 42.4065V41.5939C54.9927 40.7311 54.293 40.0314 53.4302 40.0314C52.5674 40.0314 51.8677 40.7311 51.8677 41.5939V42.4065C49.0011 43.06 46.8677 45.4675 46.8677 48.3307C46.8677 51.6943 49.8116 54.4309 53.4302 54.4309C55.3256 54.4309 56.8677 55.7656 56.8677 57.4062C56.8677 59.0468 55.3256 60.3815 53.4302 60.3815C51.5347 60.3815 49.9927 59.0468 49.9927 57.4062C49.9927 56.5434 49.293 55.8437 48.4302 55.8437C47.5674 55.8437 46.8677 56.5434 46.8677 57.4062C46.8677 60.2695 49.0011 62.677 51.8677 63.3304V64.0054C51.8677 64.8682 52.5674 65.5679 53.4302 65.5679C54.293 65.5679 54.9927 64.8682 54.9927 64.0054V63.3304C57.8592 62.677 59.9927 60.2695 59.9927 57.4062C59.9927 54.0424 57.0488 51.3059 53.4302 51.3059Z" fill="#FFB039"/><path d="M70.5442 42.0118C68.5031 38.8313 65.6275 36.2863 62.2282 34.6523C61.4503 34.2782 60.5167 34.6057 60.1429 35.3835C59.769 36.1613 60.0964 37.0948 60.8742 37.4687C66.7978 40.3162 70.6251 46.4004 70.6251 52.9688C70.6251 55.7794 69.9323 58.5668 68.6218 61.0299C68.2165 61.7916 68.5054 62.7379 69.2673 63.1432C69.501 63.2675 69.7523 63.3266 69.9998 63.3266C70.5589 63.3266 71.0996 63.0257 71.3806 62.4977C72.9307 59.5846 73.7501 56.2894 73.7501 52.9688C73.7501 49.0688 72.6415 45.2799 70.5442 42.0118Z" fill="#2B7AF1"/><path d="M55.8864 32.6565L55.7813 32.6564C54.9184 32.6564 54.2188 33.3559 54.2188 34.2189C54.2188 35.0818 54.9184 35.7814 55.7813 35.7814L55.8717 35.7815C55.8742 35.7815 55.8766 35.7815 55.8792 35.7815C56.7388 35.7815 57.4375 35.0868 57.4416 34.2264C57.4455 33.3634 56.7492 32.6606 55.8864 32.6565Z" fill="#FFB039"/><path d="M46.0013 68.469C40.0778 65.6213 36.2505 59.5371 36.2505 52.9688C36.2505 50.1582 36.9433 47.3709 38.2538 44.9078C38.6591 44.146 38.3702 43.1998 37.6083 42.7945C36.8467 42.3892 35.9002 42.6781 35.495 43.44C33.9449 46.3532 33.1255 49.6482 33.1255 52.9688C33.1255 56.8688 34.2341 60.6576 36.3314 63.9259C38.3725 67.1063 41.2481 69.6513 44.6473 71.2855C44.8656 71.3905 45.0963 71.4401 45.3233 71.4401C45.9052 71.4401 46.4636 71.1136 46.7327 70.5543C47.1063 69.7765 46.7791 68.8429 46.0013 68.469Z" fill="#2B7AF1"/><path d="M51.0941 70.1563L51.0036 70.156C50.1368 70.1544 49.438 70.848 49.4341 71.7112C49.43 72.5741 50.1266 73.277 50.9894 73.281L51.0941 73.2813C51.9569 73.2813 52.6566 72.5816 52.6566 71.7188C52.6566 70.856 51.9569 70.1563 51.0941 70.1563Z" fill="#FFB039"/><path d="M60.5325 27.3699C60.3424 26.9168 60.1094 26.4898 59.8383 26.0937H63.9061C67.8692 26.0937 71.0936 22.8693 71.0936 18.9062C71.0936 14.9431 67.8692 11.7187 63.9061 11.7187H51.3937C52.1891 10.5622 52.6562 9.16295 52.6562 7.65624C52.6562 3.69312 49.4318 0.46875 45.4687 0.46875H7.18749C3.22437 0.46875 0 3.69312 0 7.65624C0 11.6194 3.22437 14.8437 7.18749 14.8437H19.7C18.9045 16.0003 18.4375 17.3995 18.4375 18.9062C18.4375 20.4129 18.9043 21.8121 19.7 22.9687H15.625C11.6619 22.9687 8.43748 26.1931 8.43748 30.1562C8.43748 32.4323 9.50217 34.4634 11.1586 35.7812C9.50217 37.099 8.43748 39.1301 8.43748 41.4062C8.43748 43.6823 9.50217 45.7134 11.1586 47.0312C9.50217 48.349 8.43748 50.3801 8.43748 52.6562C8.43748 54.9322 9.50217 56.9633 11.1586 58.2811C9.50217 59.5989 8.43748 61.63 8.43748 63.9061C8.43748 67.8692 11.6619 71.0936 15.625 71.0936H34.039C38.8899 76.2822 45.7909 79.5313 53.4376 79.5313C68.0841 79.5313 80 67.6153 80 52.9688C80 40.7787 71.7453 30.4817 60.5325 27.3699ZM63.9061 14.8437C66.1463 14.8437 67.9686 16.6662 67.9686 18.9062C67.9686 21.1462 66.1463 22.9687 63.9061 22.9687H53.9061H25.625C23.3848 22.9687 21.5625 21.1462 21.5625 18.9062C21.5625 16.6662 23.3848 14.8437 25.625 14.8437H63.9061ZM7.18749 11.7187C4.94733 11.7187 3.12499 9.89623 3.12499 7.65624C3.12499 5.41624 4.94733 3.59374 7.18749 3.59374H45.4687C47.7088 3.59374 49.5312 5.41624 49.5312 7.65624C49.5312 9.89623 47.7088 11.7187 45.4687 11.7187H7.18749ZM15.625 26.0937H53.9061C54.5355 26.0937 55.1382 26.24 55.6788 26.5018C54.9397 26.4398 54.1926 26.4064 53.4376 26.4064C46.1024 26.4064 39.4524 29.3953 34.6409 34.2187H15.625C13.385 34.2187 11.5625 32.3962 11.5625 30.1562C11.5625 27.9162 13.385 26.0937 15.625 26.0937ZM15.625 37.3437H31.971C30.1973 39.7738 28.8259 42.5148 27.9549 45.4687H15.625C13.3848 45.4687 11.5625 43.6463 11.5625 41.4062C11.5625 39.1662 13.3848 37.3437 15.625 37.3437ZM15.625 48.5937H27.2374C27.0004 50.0176 26.8751 51.4787 26.8751 52.9688C26.8751 54.2416 26.9671 55.4932 27.141 56.7186H15.625C13.3848 56.7186 11.5625 54.8963 11.5625 52.6562C11.5625 50.416 13.3848 48.5937 15.625 48.5937ZM15.625 67.9686C13.3848 67.9686 11.5625 66.1463 11.5625 63.9061C11.5625 61.666 13.3848 59.8436 15.625 59.8436H27.779C28.5674 62.7832 29.8482 65.5227 31.5279 67.9686H15.625ZM53.4376 76.4063C40.5141 76.4063 30.0001 65.8922 30.0001 52.9688C30.0001 40.0454 40.5141 29.5314 53.4376 29.5314C66.361 29.5314 76.875 40.0454 76.875 52.9688C76.875 65.8922 66.361 76.4063 53.4376 76.4063Z" fill="#2B7AF1"/></g><defs><linearGradient id="gpaint0_linear_1_2560" x1="46.868" y1="52.8" x2="59.995" y2="52.772" gradientUnits="userSpaceOnUse"><stop stop-color="#FF7A00"/><stop offset="1" stop-color="#FFB039"/></linearGradient><linearGradient id="gpaint1_linear_1_2560" x1="54.219" y1="34.219" x2="57.442" y2="34.206" gradientUnits="userSpaceOnUse"><stop stop-color="#FF7A00"/><stop offset="1" stop-color="#FFB039"/></linearGradient><linearGradient id="gpaint2_linear_1_2560" x1="49.434" y1="71.719" x2="52.657" y2="71.705" gradientUnits="userSpaceOnUse"><stop stop-color="#FF7A00"/><stop offset="1" stop-color="#FFB039"/></linearGradient><clipPath id="gclip0_1_2560"><path fill="#fff" d="M0 0H80V80H0z"/></clipPath></defs></symbol><symbol viewBox="0 0 80 80" fill="none" id="review"><g clip-path="url(#hclip0_1_2244)"><path d="M56.0517 26.2639C53.7181 26.2639 51.4349 26.596 49.2337 27.2501C49.3209 26.4085 49.3659 25.5546 49.3659 24.6904C49.3659 20.7359 48.4582 16.9573 46.6685 13.4599C46.2751 12.6918 45.3338 12.3879 44.566 12.7809C43.798 13.1741 43.494 14.1152 43.887 14.8834C45.4492 17.9357 46.2412 21.2353 46.2412 24.6903C46.2412 36.5778 36.5701 46.2487 24.6827 46.2487C21.9114 46.2487 19.2124 45.7298 16.661 44.7059C16.0805 44.4736 15.4169 44.6091 14.9746 45.0512L11.5603 48.4658V42.5494C11.5603 42.0825 11.3514 41.64 10.991 41.3431C5.99173 37.2276 3.12438 31.1579 3.12438 24.6903C3.12438 12.8027 12.7955 3.13179 24.6829 3.13179C27.5521 3.13179 30.3377 3.68585 32.9626 4.77866C33.8094 5.13116 34.6427 5.54288 35.4391 6.00242C36.1863 6.43335 37.1416 6.17726 37.5729 5.42991C38.004 4.68273 37.7477 3.72726 37.0004 3.29616C36.0882 2.77007 35.1337 2.29819 34.1635 1.89428C31.1563 0.642249 27.9666 0.00724792 24.683 0.00724792C11.0728 0.00724792 0 11.0801 0 24.6903C0 31.8461 3.06485 38.5761 8.43595 43.2722V52.2372C8.43595 52.8691 8.81674 53.4388 9.40033 53.6805C9.59361 53.7605 9.79658 53.7994 9.99783 53.7994C10.4044 53.7994 10.8039 53.6406 11.1028 53.3419L16.4718 47.973C19.1043 48.9025 21.8613 49.3731 24.683 49.3731C27.2993 49.3731 29.821 48.9625 32.189 48.2048C32.1332 48.8723 32.1035 49.5423 32.1035 50.2119C32.1035 53.8691 32.9068 57.38 34.491 60.6477C34.7612 61.2042 35.3179 61.5286 35.8977 61.5286C36.1265 61.5286 36.3587 61.4783 36.5782 61.3717C37.3544 60.9953 37.6787 60.0608 37.3023 59.2844C35.9257 56.4453 35.2277 53.393 35.2277 50.212C35.2277 49.0947 35.3188 47.9758 35.4962 46.875C41.9366 43.723 46.8112 37.8481 48.6099 30.759C50.9817 29.85 53.4809 29.3882 56.0515 29.3882C67.5339 29.3882 76.8755 38.7298 76.8755 50.212C76.8755 56.5906 74.009 62.5313 69.0115 66.5111C68.6392 66.8074 68.4225 67.2572 68.4225 67.7332V74.6591L64.1432 70.3799C63.7264 69.9632 63.1109 69.8164 62.5514 70.0002C60.4578 70.6874 58.2709 71.036 56.0515 71.036C52.8765 71.036 49.8288 70.3404 46.9937 68.9683C46.2174 68.5927 45.2829 68.9174 44.907 69.6941C44.5312 70.4707 44.8562 71.4049 45.6327 71.7808C48.8957 73.3596 52.4012 74.1602 56.0515 74.1602C58.2765 74.1602 60.4742 73.8552 62.5976 73.2524L68.8801 79.5349C69.179 79.8338 69.5786 79.9924 69.9851 79.9924C70.1864 79.9924 70.3895 79.9535 70.5826 79.8735C71.1662 79.6316 71.547 79.0621 71.547 78.4302V68.4708C76.9291 63.9046 79.9998 57.2931 79.9998 50.2119C80.0002 37.007 69.2569 26.2639 56.0517 26.2639Z" fill="#2B7AF1"/><path d="M41.5497 65.1561C41.5018 65.1099 41.4543 65.0633 41.4069 65.0163 40.7944 64.409 39.8051 64.4135 39.1977 65.0261 38.5904 65.6388 38.5949 66.628 39.2076 67.2354 39.2627 67.2901 39.318 67.3441 39.3736 67.3982 39.6772 67.6929 40.0696 67.8393 40.4616 67.8393 40.8693 67.8393 41.2766 67.6805 41.5829 67.3652 42.1836 66.746 42.1688 65.7569 41.5497 65.1561zM42.7964 7.92211C42.1181 7.1982 41.1332 7.30507 40.5729 7.82695 40.0128 8.34836 39.8359 9.3232 40.5095 10.0515 40.5142 10.0565 40.519 10.0616 40.5237 10.0666 40.8609 10.4215 41.2711 10.5735 41.6673 10.5735 42.0742 10.5735 42.4657 10.413 42.7479 10.1471 43.3045 9.62179 43.4748 8.64586 42.7964 7.92211zM17.8874 19.2995C17.5968 19.0088 17.1952 18.8416 16.7829 18.8416 16.372 18.8416 15.969 19.0088 15.6784 19.2995 15.3879 19.5899 15.2207 19.9929 15.2207 20.4038 15.2207 20.8148 15.3879 21.2177 15.6784 21.5084 15.969 21.799 16.372 21.966 16.7829 21.966 17.1938 21.966 17.5968 21.799 17.8874 21.5084 18.1796 21.2177 18.3451 20.8148 18.3451 20.4038 18.3451 19.9929 18.1795 19.5898 17.8874 19.2995zM33.6877 19.2995C33.3972 19.0088 32.9943 18.8416 32.5832 18.8416 32.1707 18.8416 31.7677 19.0088 31.4772 19.2995 31.1866 19.5899 31.021 19.9929 31.021 20.4038 31.021 20.8148 31.1868 21.2177 31.4772 21.5084 31.7693 21.799 32.1722 21.966 32.5832 21.966 32.9941 21.966 33.3955 21.799 33.6877 21.5084 33.9783 21.2177 34.1454 20.8148 34.1454 20.4038 34.1454 19.9929 33.9785 19.5898 33.6877 19.2995z" fill="#FFB039"/><path d="M30.6645 28.5279C29.8305 28.3046 28.9747 28.8005 28.752 29.634C28.2602 31.4757 26.5869 32.762 24.683 32.762C22.7791 32.762 21.1059 31.4757 20.6139 29.634C20.3912 28.8004 19.5351 28.3044 18.7014 28.5279C17.8678 28.7507 17.3726 29.6068 17.5953 30.4404C18.452 33.647 21.3664 35.8863 24.683 35.8863C27.9994 35.8863 30.9139 33.647 31.7706 30.4404C31.9933 29.6066 31.4981 28.7505 30.6645 28.5279Z" fill="#2B7AF1"/><path d="M49.5186 44.9288C49.2282 44.6382 48.8267 44.4712 48.4142 44.4712 48.0033 44.4712 47.6003 44.6382 47.3097 44.9288 47.0191 45.2196 46.8521 45.6224 46.8521 46.0334 46.8521 46.4459 47.0191 46.8473 47.3097 47.1377 47.6003 47.4284 48.0033 47.5956 48.4142 47.5956 48.8267 47.5956 49.2282 47.4284 49.5186 47.1377 49.8108 46.8473 49.9764 46.4443 49.9764 46.0334 49.9764 45.6224 49.8108 45.2195 49.5186 44.9288zM64.7927 44.929C64.5021 44.6384 64.1005 44.4714 63.6882 44.4714 63.2772 44.4714 62.8743 44.6384 62.5836 44.929 62.2932 45.2196 62.126 45.6226 62.126 46.0336 62.126 46.4461 62.2932 46.8475 62.5836 47.1379 62.8743 47.4286 63.2772 47.5957 63.6882 47.5957 64.1005 47.5956 64.5021 47.4284 64.7927 47.1379 65.0832 46.8475 65.2504 46.4445 65.2504 46.0336 65.2504 45.6226 65.0833 45.2196 64.7927 44.929z" fill="#FFB039"/><path d="M49.1495 55.7506C49.9834 58.873 52.8219 61.0539 56.0514 61.0539C59.281 61.0539 62.1193 58.8731 62.9535 55.7506C63.1763 54.917 62.681 54.0609 61.8474 53.8381C61.0132 53.6147 60.1577 54.1108 59.9349 54.9442C59.4653 56.7019 57.8682 57.9294 56.0516 57.9294C54.2345 57.9294 52.6375 56.7017 52.1681 54.9442C51.9816 54.2456 51.3502 53.7847 50.6599 53.7847C50.5264 53.7847 50.3906 53.8019 50.2556 53.8381C49.4219 54.0609 48.9267 54.917 49.1495 55.7506Z" fill="#2B7AF1"/></g><defs><linearGradient id="hpaint0_linear_1_2244" x1="38.745" y1="66.201" x2="42.025" y2="66.188" gradientUnits="userSpaceOnUse"><stop stop-color="#FF7A00"/><stop offset="1" stop-color="#FFB039"/></linearGradient><linearGradient id="hpaint1_linear_1_2244" x1="40.074" y1="8.99" x2="43.239" y2="8.978" gradientUnits="userSpaceOnUse"><stop stop-color="#FF7A00"/><stop offset="1" stop-color="#FFB039"/></linearGradient><linearGradient id="hpaint2_linear_1_2244" x1="15.221" y1="20.404" x2="18.346" y2="20.391" gradientUnits="userSpaceOnUse"><stop stop-color="#FF7A00"/><stop offset="1" stop-color="#FFB039"/></linearGradient><linearGradient id="hpaint3_linear_1_2244" x1="31.021" y1="20.404" x2="34.146" y2="20.391" gradientUnits="userSpaceOnUse"><stop stop-color="#FF7A00"/><stop offset="1" stop-color="#FFB039"/></linearGradient><linearGradient id="hpaint4_linear_1_2244" x1="46.852" y1="46.033" x2="49.977" y2="46.021" gradientUnits="userSpaceOnUse"><stop stop-color="#FF7A00"/><stop offset="1" stop-color="#FFB039"/></linearGradient><linearGradient id="hpaint5_linear_1_2244" x1="62.126" y1="46.034" x2="65.251" y2="46.021" gradientUnits="userSpaceOnUse"><stop stop-color="#FF7A00"/><stop offset="1" stop-color="#FFB039"/></linearGradient><clipPath id="hclip0_1_2244"><path fill="#fff" d="M0 0H80V80H0z"/></clipPath></defs></symbol><symbol viewBox="0 0 80 80" fill="none" id="safety"><g clip-path="url(#iclip0_1_2416)"><path d="M72.8741 13.8142C61.8671 10.7983 50.7954 6.10221 40.8559 0.233789C40.3279 -0.0779295 39.6728 -0.0779295 39.145 0.233789C28.9187 6.27081 18.4453 10.7128 7.12582 13.8142C6.39457 14.0144 5.8877 14.6791 5.8877 15.4374V32.632C5.8877 50.3387 14.0563 62.0593 20.9091 68.7735C28.2866 76.0024 36.8803 80 40.0004 80C43.1203 80 51.714 76.0024 59.0915 68.7735C65.9441 62.0595 74.1123 50.3388 74.1123 32.632V15.4372C74.1123 14.6791 73.6054 14.0144 72.8741 13.8142ZM70.7466 32.6319C70.7466 49.1698 63.1277 60.1065 56.7359 66.3693C49.481 73.4779 41.7243 76.6341 40.0004 76.6341C38.2765 76.6341 30.5194 73.4779 23.2644 66.3693C16.8727 60.1063 9.25347 49.1698 9.25347 32.6319V16.7147C20.0781 13.6413 30.1591 9.35205 40.0008 3.63284C49.5967 9.20033 60.1806 13.7028 70.7466 16.7141V32.6319Z" fill="#2B7AF1"/><path d="M25.0842 16.5265C24.7436 15.6617 23.7666 15.2368 22.9016 15.5776C19.8953 16.7621 16.8097 17.8524 13.7305 18.8184C13.0288 19.0387 12.5513 19.6887 12.5513 20.424V26.9226C12.5513 27.8519 13.3049 28.6054 14.2341 28.6054C15.1633 28.6054 15.9169 27.8519 15.9169 26.9226V21.6538C18.6792 20.7601 21.4386 19.7715 24.1353 18.7088C25.0002 18.3684 25.425 17.3913 25.0842 16.5265Z" fill="#2B7AF1"/><path d="M28.2809 16.8457C28.5067 16.8457 28.7359 16.8002 28.9557 16.7043L28.9867 16.6909C29.8381 16.3177 30.2215 15.3267 29.8484 14.4756C29.4749 13.6242 28.4782 13.239 27.6278 13.6118L27.6006 13.6235C26.7487 13.9956 26.364 14.9859 26.7361 15.8374C27.0121 16.4696 27.6317 16.8457 28.2809 16.8457Z" fill="#FFB039"/><path d="M60.0504 54.263C59.2727 53.7547 58.2299 53.9733 57.721 54.7512C56.3343 56.8737 54.7074 58.9062 52.8849 60.7917C51.3862 62.342 49.7621 63.787 48.0579 65.0862C47.319 65.6497 47.1768 66.7056 47.7401 67.4448C48.0715 67.879 48.5726 68.1075 49.0795 68.1075C49.4354 68.1075 49.794 67.9951 50.0987 67.7626C51.937 66.3609 53.6885 64.8026 55.3044 63.1311C57.2749 61.093 59.0358 58.893 60.5387 56.5922C61.0472 55.8141 60.8283 54.7712 60.0504 54.263Z" fill="#2B7AF1"/><path d="M44.1495 67.7254L44.053 67.7823C43.2488 68.2481 42.9739 69.2774 43.4395 70.0817 43.7516 70.6207 44.3164 70.9217 44.8975 70.9217 45.1834 70.9217 45.4737 70.8487 45.7389 70.6948L45.8503 70.6293C46.6523 70.1596 46.9217 69.1289 46.452 68.3268 45.982 67.5251 44.9511 67.2562 44.1495 67.7254zM28.5296 36.5655C27.4963 35.532 26.1221 34.9633 24.6606 34.9633 23.199 34.9633 21.8246 35.5322 20.7909 36.5655 18.6576 38.6992 18.6576 42.1711 20.7909 44.3047L30.7277 54.2412C31.7612 55.2744 33.1354 55.8433 34.5971 55.8433 36.0588 55.8433 37.433 55.2743 38.4666 54.2409L59.2105 33.4969C61.3436 31.3627 61.3436 27.8913 59.2102 25.7583 58.1767 24.7249 56.8025 24.1561 55.3407 24.1561 53.8789 24.1561 52.5047 24.725 51.4711 25.7583L34.5969 42.6325 28.5296 36.5655zM53.8511 28.1383C54.2488 27.7407 54.778 27.5217 55.3408 27.5217 55.9039 27.5217 56.4327 27.7407 56.8307 28.1383 57.6517 28.9594 57.6517 30.296 56.8303 31.1174L36.0868 51.8611C35.6891 52.2587 35.1599 52.4776 34.5971 52.4776 34.0343 52.4776 33.5051 52.2587 33.1073 51.8611L23.1707 41.9248C22.3493 41.1034 22.3493 39.7669 23.1704 38.9458 23.5682 38.5481 24.0974 38.3289 24.6604 38.3289 25.2234 38.3289 25.7523 38.5478 26.1499 38.9455L33.4069 46.2026C33.7227 46.5181 34.1505 46.6955 34.5969 46.6955 35.0433 46.6955 35.4712 46.5183 35.7866 46.2026L53.8511 28.1383z" fill="#FFB039"/></g><defs><linearGradient id="ipaint0_linear_1_2416" x1="26.594" y1="15.158" x2="29.992" y2="15.144" gradientUnits="userSpaceOnUse"><stop stop-color="#FF7A00"/><stop offset="1" stop-color="#FFB039"/></linearGradient><linearGradient id="ipaint1_linear_1_2416" x1="43.213" y1="69.208" x2="46.684" y2="69.194" gradientUnits="userSpaceOnUse"><stop stop-color="#FF7A00"/><stop offset="1" stop-color="#FFB039"/></linearGradient><linearGradient id="ipaint2_linear_1_2416" x1="19.191" y1="40" x2="60.818" y2="39.779" gradientUnits="userSpaceOnUse"><stop stop-color="#FF7A00"/><stop offset="1" stop-color="#FFB039"/></linearGradient><clipPath id="iclip0_1_2416"><path fill="#fff" d="M0 0H80V80H0z"/></clipPath></defs></symbol><symbol viewBox="0 0 40 40" fill="none" id="slider-nav-left"><circle cx="20" cy="20" r="20" transform="matrix(-1 0 0 1 40 0)" fill="#FFB039"/><path d="M22.7176 11.6872C22.8078 11.5918 22.8783 11.4795 22.9251 11.3567C22.972 11.234 22.9941 11.1033 22.9904 10.972C22.9867 10.8407 22.9572 10.7114 22.9035 10.5915C22.8498 10.4716 22.773 10.3635 22.6776 10.2732C22.5821 10.183 22.4698 10.1125 22.3471 10.0657C22.2243 10.0189 22.0936 9.99669 21.9623 10.0004C21.831 10.0041 21.7017 10.0337 21.5818 10.0873C21.4619 10.141 21.3538 10.2178 21.2636 10.3132L12.7636 19.3132C12.588 19.4989 12.4902 19.7447 12.4902 20.0002C12.4902 20.2558 12.588 20.5016 12.7636 20.6872L21.2636 29.6882C21.3532 29.7858 21.4613 29.8646 21.5816 29.92C21.702 29.9754 21.8321 30.0064 21.9645 30.0111C22.0969 30.0158 22.2289 29.9942 22.3529 29.9474C22.4768 29.9007 22.5903 29.8298 22.6866 29.7388C22.7829 29.6479 22.8602 29.5387 22.9139 29.4176C22.9677 29.2965 22.9969 29.166 22.9998 29.0335C23.0027 28.9011 22.9792 28.7694 22.9308 28.6461C22.8823 28.5228 22.8098 28.4103 22.7176 28.3153L14.8656 20.0002L22.7176 11.6872Z" fill="#fff"/><defs><linearGradient id="jpaint0_linear_1_2064" x1="0" y1="20" x2="40.007" y2="19.838" gradientUnits="userSpaceOnUse"><stop stop-color="#FF7A00"/><stop offset="1" stop-color="#FFB039"/></linearGradient></defs></symbol><symbol viewBox="0 0 40 40" fill="none" id="slider-nav-right"><circle cx="20" cy="20" r="20" fill="#FFB039"/><path d="M17.2824 11.6872C17.1922 11.5918 17.1217 11.4795 17.0749 11.3567C17.028 11.234 17.0059 11.1033 17.0096 10.972C17.0133 10.8407 17.0428 10.7114 17.0965 10.5915C17.1502 10.4716 17.227 10.3635 17.3224 10.2732C17.4179 10.183 17.5302 10.1125 17.6529 10.0657C17.7757 10.0189 17.9064 9.99669 18.0377 10.0004C18.169 10.0041 18.2983 10.0337 18.4182 10.0873C18.5381 10.141 18.6462 10.2178 18.7364 10.3132L27.2364 19.3132C27.412 19.4989 27.5098 19.7447 27.5098 20.0002C27.5098 20.2558 27.412 20.5016 27.2364 20.6872L18.7364 29.6882C18.6468 29.7858 18.5387 29.8646 18.4184 29.92C18.298 29.9754 18.1679 30.0064 18.0355 30.0111C17.9031 30.0158 17.7711 29.9942 17.6471 29.9474C17.5232 29.9007 17.4097 29.8298 17.3134 29.7388C17.2171 29.6479 17.1398 29.5387 17.0861 29.4176C17.0323 29.2965 17.0031 29.166 17.0002 29.0335C16.9973 28.9011 17.0208 28.7694 17.0692 28.6461C17.1177 28.5228 17.1902 28.4103 17.2824 28.3153L25.1344 20.0002L17.2824 11.6872Z" fill="#fff"/><defs><linearGradient id="kpaint0_linear_1_2061" x1="0" y1="20" x2="40.007" y2="19.838" gradientUnits="userSpaceOnUse"><stop stop-color="#FF7A00"/><stop offset="1" stop-color="#FFB039"/></linearGradient></defs></symbol><symbol viewBox="0 0 40 40" fill="none" id="telegram"><circle cx="20" cy="20" r="20" fill="#2B7AF1"/><path d="M9.3507 20.3743L13.9488 22.0889L15.7413 27.8559C15.8192 28.2456 16.2868 28.3235 16.5985 28.0897L19.1703 25.9855C19.4041 25.7517 19.7938 25.7517 20.1055 25.9855L24.7036 29.3367C25.0154 29.5705 25.483 29.4146 25.5609 29.0249L28.99 12.6589C29.0679 12.2692 28.6782 11.8796 28.2886 12.0354L9.3507 19.3612C8.8831 19.5171 8.8831 20.2185 9.3507 20.3743ZM15.5075 21.2316L24.5477 15.6983C24.7036 15.6204 24.8595 15.8542 24.7036 15.9321L17.2999 22.8682C17.0661 23.102 16.8323 23.4137 16.8323 23.8034L16.5985 25.6738C16.5985 25.9076 16.2089 25.9855 16.1309 25.6738L15.1957 22.2447C14.9619 21.8551 15.1178 21.3875 15.5075 21.2316Z" fill="#fff"/></symbol><symbol viewBox="0 0 80 80" fill="none" id="time"><g clip-path="url(#mclip0_1_2492)"><path d="M79.8458 43.6954C79.1275 36.4706 75.8998 29.6594 70.7569 24.5164C66.3618 20.1215 60.9824 17.2972 55.322 16.0414V12.0713C57.6339 11.4962 59.3523 9.40348 59.3523 6.9161C59.3523 3.98668 56.9692 1.60352 54.0398 1.60352H42.7896C39.8602 1.60352 37.477 3.98668 37.477 6.9161C37.477 9.40333 39.1955 11.496 41.5072 12.0713V16.0525C35.8642 17.3136 30.5025 20.134 26.1199 24.5165C25.1609 25.4756 24.2765 26.4817 23.4669 27.5274C23.4277 27.5244 23.3885 27.5214 23.3485 27.5214H12.2138C11.351 27.5214 10.6513 28.221 10.6513 29.0839C10.6513 29.9469 11.351 30.6465 12.2138 30.6465H21.3408C20.1952 32.5645 19.2714 34.5787 18.5683 36.6522H1.56252C0.699698 36.6522 0 37.3517 0 38.2147C0 39.0777 0.699698 39.7772 1.56252 39.7772H17.6853C17.235 41.754 16.9765 43.7657 16.9098 45.7831H10.0002C9.13733 45.7831 8.43763 46.4827 8.43763 47.3456C8.43763 48.2086 9.13733 48.9082 10.0002 48.9082H16.9596C17.0915 50.9307 17.4167 52.9426 17.9353 54.914H7.81262C6.9498 54.914 6.2501 55.6136 6.2501 56.4766C6.2501 57.3395 6.9498 58.0391 7.81262 58.0391H18.9325C20.4653 62.094 22.8608 65.8945 26.1199 69.1536C31.2678 74.3015 38.0861 77.53 45.3184 78.2446C46.3506 78.3464 47.3836 78.3969 48.4151 78.3969C54.5124 78.3969 60.5322 76.6323 65.6401 73.306C66.3632 72.8351 66.5678 71.8671 66.0968 71.144C65.6259 70.4208 64.6579 70.2163 63.9347 70.6872C52.7538 77.9681 37.7797 76.3939 28.3297 66.9439C17.2417 55.8559 17.2417 37.8146 28.3297 26.7264C39.4175 15.6386 57.4589 15.6386 68.547 26.7264C77.9845 36.1641 79.5673 51.1254 72.3105 62.3009C71.8405 63.0246 72.0463 63.9925 72.7699 64.4623C73.494 64.9323 74.4615 64.7265 74.9313 64.0028C78.8086 58.0316 80.5539 50.8198 79.8458 43.6954ZM40.602 6.91625C40.602 5.70999 41.5833 4.72872 42.7896 4.72872H54.0398C55.246 4.72872 56.2273 5.70999 56.2273 6.91625C56.2273 8.12252 55.246 9.10379 54.0398 9.10379H53.7594H43.0697H42.7896C41.5833 9.10379 40.602 8.12237 40.602 6.91625ZM44.6323 15.5153V12.2288H52.1969V15.5097C49.685 15.2109 47.1437 15.2128 44.6323 15.5153Z" fill="#2B7AF1"/><path d="M69.6523 66.4855C69.2398 66.4855 68.8383 66.6527 68.5478 66.9433 68.2556 67.2339 68.0898 67.637 68.0898 68.048 68.0898 68.4589 68.2556 68.862 68.5478 69.1527 68.8383 69.4448 69.24 69.6105 69.6523 69.6105 70.0633 69.6105 70.4648 69.4448 70.757 69.1527 71.0477 68.862 71.2148 68.4589 71.2148 68.048 71.2148 67.637 71.0478 67.2339 70.757 66.9433 70.4648 66.6527 70.0631 66.4855 69.6523 66.4855zM48.4385 22.5956C35.073 22.5956 24.1992 33.4692 24.1992 46.8349 24.1992 60.2006 35.073 71.0742 48.4385 71.0742 61.804 71.0742 72.6778 60.2006 72.6778 46.8349 72.6778 33.4692 61.804 22.5956 48.4385 22.5956zM48.4385 67.9491C36.796 67.9491 27.3243 58.4772 27.3243 46.8349 27.3243 35.1925 36.796 25.7206 48.4385 25.7206 60.081 25.7206 69.5527 35.1925 69.5527 46.8349 69.5527 58.4772 60.081 67.9491 48.4385 67.9491z" fill="#FFB039"/><path d="M58.3224 34.7412L50.5832 42.4802C49.936 42.1602 49.208 41.9794 48.4385 41.9794 47.6688 41.9794 46.9409 42.1602 46.2937 42.4802L42.8301 39.0166C42.2198 38.4064 41.2307 38.4064 40.6202 39.0166 40.0101 39.6267 40.0101 40.6161 40.6202 41.2263L44.0839 44.6899C43.7637 45.3371 43.5831 46.0651 43.5831 46.8347 43.5831 49.5119 45.7611 51.6901 48.4385 51.6901 51.1158 51.6901 53.2939 49.5119 53.2939 46.8347 53.2939 46.0651 53.1131 45.3371 52.7931 44.6899L60.3051 37.178 60.5321 36.9509C61.1422 36.3408 61.1422 35.3514 60.5321 34.7412 59.9219 34.131 58.9328 34.131 58.3224 34.7412zM48.4385 48.5652C47.4844 48.5652 46.7081 47.7889 46.7081 46.8348 46.7081 45.8807 47.4844 45.1045 48.4385 45.1045 49.3925 45.1045 50.1688 45.8807 50.1688 46.8348 50.1688 47.7889 49.3925 48.5652 48.4385 48.5652zM65.1449 45.2914H63.6973C62.8345 45.2914 62.1348 45.9909 62.1348 46.8539 62.1348 47.7169 62.8345 48.4164 63.6973 48.4164H65.1449C66.0077 48.4164 66.7074 47.7169 66.7074 46.8539 66.7074 45.9909 66.0077 45.2914 65.1449 45.2914zM33.1794 45.2533H31.7319C30.8691 45.2533 30.1694 45.9528 30.1694 46.8158 30.1694 47.6788 30.8691 48.3783 31.7319 48.3783H33.1794C34.0422 48.3783 34.7419 47.6788 34.7419 46.8158 34.7419 45.9528 34.0422 45.2533 33.1794 45.2533zM48.4575 33.1385C49.3203 33.1385 50.02 32.439 50.02 31.576V30.1285C50.02 29.2656 49.3203 28.566 48.4575 28.566 47.5947 28.566 46.895 29.2656 46.895 30.1285V31.576C46.895 32.439 47.5947 33.1385 48.4575 33.1385zM48.4194 60.5311C47.5566 60.5311 46.8569 61.2307 46.8569 62.0936V63.5411C46.8569 64.4041 47.5566 65.1036 48.4194 65.1036 49.2822 65.1036 49.9819 64.4041 49.9819 63.5411V62.0936C49.9819 61.2307 49.2822 60.5311 48.4194 60.5311z" fill="#2B7AF1"/><path d="M1.5625 54.9135C1.15156 54.9135 0.748438 55.0806 0.457813 55.3713C0.167188 55.6619 0 56.065 0 56.476C0 56.8885 0.167031 57.29 0.457813 57.5806C0.748594 57.8713 1.15156 58.0385 1.5625 58.0385C1.97344 58.0385 2.37656 57.8713 2.66703 57.5806C2.95766 57.29 3.125 56.8869 3.125 56.476C3.125 56.065 2.95781 55.6619 2.66703 55.3713C2.37656 55.0806 1.97344 54.9135 1.5625 54.9135Z" fill="#FFB039"/></g><defs><linearGradient id="mpaint0_linear_1_2492" x1="68.09" y1="68.048" x2="71.215" y2="68.035" gradientUnits="userSpaceOnUse"><stop stop-color="#FF7A00"/><stop offset="1" stop-color="#FFB039"/></linearGradient><linearGradient id="mpaint1_linear_1_2492" x1="24.199" y1="46.835" x2="72.687" y2="46.639" gradientUnits="userSpaceOnUse"><stop stop-color="#FF7A00"/><stop offset="1" stop-color="#FFB039"/></linearGradient><linearGradient id="mpaint2_linear_1_2492" x1="0" y1="56.476" x2="3.126" y2="56.463" gradientUnits="userSpaceOnUse"><stop stop-color="#FF7A00"/><stop offset="1" stop-color="#FFB039"/></linearGradient><clipPath id="mclip0_1_2492"><path fill="#fff" d="M0 0H80V80H0z"/></clipPath></defs></symbol><symbol viewBox="0 0 40 41" fill="none" id="vk"><circle cx="20" cy="20.355" r="20" fill="#2B7AF1"/><path d="M29.806 25.4698C29.806 25.3868 29.723 25.3868 29.723 25.3038C29.3909 24.6396 28.6437 23.8094 27.6474 22.8961C27.1493 22.481 26.9002 22.1489 26.7342 21.9828C26.4851 21.6508 26.4851 21.4017 26.5681 21.0696C26.6512 20.8205 26.9832 20.4054 27.5644 19.6582C27.8965 19.2431 28.0625 18.994 28.3116 18.745C29.5569 17.0845 30.1381 16.0052 29.972 15.5071L29.889 15.424C29.806 15.341 29.723 15.258 29.5569 15.258C29.3909 15.175 29.1418 15.175 28.8928 15.258H25.7379C25.6549 15.258 25.6549 15.258 25.4888 15.258C25.4058 15.258 25.3228 15.258 25.3228 15.258H25.2398H25.1567L25.0737 15.341C24.9907 15.424 24.9907 15.424 24.9907 15.5071C24.6586 16.4203 24.2435 17.1675 23.8284 17.9977C23.5793 18.4129 23.3302 18.828 23.0812 19.1601C22.8321 19.4922 22.666 19.7412 22.5 19.9073C22.3339 20.0733 22.1679 20.1563 22.0849 20.3224C22.0018 20.4054 21.8358 20.4884 21.8358 20.4054C21.7528 20.4054 21.6698 20.4054 21.6698 20.3224C21.5867 20.2394 21.5037 20.1563 21.4207 20.0733C21.3377 19.9903 21.3377 19.8242 21.2546 19.6582C21.2546 19.4922 21.2546 19.3261 21.2546 19.2431C21.2546 19.1601 21.2546 18.911 21.2546 18.745C21.2546 18.4959 21.2546 18.3298 21.2546 18.2468C21.2546 17.9977 21.2546 17.6657 21.2546 17.3336C21.2546 17.0015 21.2546 16.7524 21.2546 16.5864C21.2546 16.4203 21.2546 16.1712 21.2546 16.0052C21.2546 15.7561 21.2546 15.5901 21.2546 15.5071C21.2546 15.424 21.1716 15.258 21.1716 15.175C21.0886 15.0919 21.0056 15.0089 20.9226 14.9259C20.8395 14.8429 20.6735 14.8429 20.5905 14.7599C20.1754 14.6768 19.6772 14.5938 19.0961 14.5938C17.7677 14.5938 16.8544 14.6768 16.5223 14.8429C16.3563 14.9259 16.1903 15.0089 16.1072 15.175C15.9412 15.341 15.9412 15.424 16.0242 15.424C16.4393 15.5071 16.7714 15.6731 16.9375 15.9222L17.0205 16.0882C17.1035 16.1712 17.1035 16.3373 17.1865 16.5864C17.2695 16.8354 17.2696 17.0845 17.2696 17.4166C17.2696 17.9147 17.2696 18.4129 17.2696 18.745C17.2696 19.1601 17.1865 19.4091 17.1865 19.6582C17.1865 19.9073 17.1035 20.0733 17.0205 20.1563C16.9375 20.3224 16.9375 20.4054 16.8544 20.4054C16.8544 20.4054 16.8544 20.4884 16.7714 20.4884C16.6884 20.4884 16.6054 20.5715 16.4393 20.5715C16.3563 20.5715 16.1903 20.4884 16.1072 20.4054C15.9412 20.3224 15.7751 20.1563 15.6921 19.9903C15.5261 19.8243 15.36 19.5752 15.194 19.2431C15.0279 18.911 14.7789 18.5789 14.6128 18.0808L14.4468 17.7487C14.3638 17.5826 14.1977 17.2505 14.0317 16.8354C13.8656 16.4203 13.6996 16.0882 13.5335 15.6731C13.4505 15.5071 13.3675 15.424 13.2845 15.341H13.2014C13.2014 15.341 13.1184 15.258 13.0354 15.258C12.9524 15.258 12.8693 15.175 12.7863 15.175H9.79749C9.4654 15.175 9.29935 15.258 9.21633 15.341L9.1333 15.424C9.1333 15.424 9.1333 15.5071 9.1333 15.5901C9.1333 15.6731 9.13331 15.7561 9.21633 15.9222C9.63144 16.9184 10.1296 17.9147 10.6277 18.911C11.1259 19.8243 11.624 20.6545 11.9561 21.2356C12.3712 21.8168 12.7033 22.398 13.1184 22.8961C13.5335 23.3942 13.7826 23.7263 13.8656 23.8924C14.0317 24.0584 14.1147 24.1414 14.1977 24.2245L14.4468 24.4735C14.6128 24.6396 14.8619 24.8887 15.194 25.1377C15.5261 25.3868 15.9412 25.6359 16.3563 25.8849C16.7714 26.134 17.2696 26.3 17.7677 26.4661C18.3489 26.6321 18.847 26.7152 19.3451 26.6321H20.5905C20.8395 26.6321 21.0056 26.5491 21.1716 26.3831L21.2546 26.3C21.2546 26.217 21.3377 26.217 21.3377 26.134C21.3377 26.051 21.3377 25.968 21.3377 25.8019C21.3377 25.4698 21.3377 25.2207 21.4207 24.9717C21.5037 24.7226 21.5037 24.5566 21.5868 24.3905C21.6698 24.2245 21.7528 24.1414 21.8358 24.0584C21.9188 23.9754 22.0019 23.8924 22.0019 23.8924H22.0849C22.2509 23.8094 22.5 23.8924 22.666 24.0584C22.9151 24.2245 23.1642 24.4735 23.3302 24.7226C23.4963 24.9717 23.7453 25.2207 24.0774 25.5528C24.4095 25.8849 24.6586 26.134 24.8246 26.217L25.0737 26.3831C25.2397 26.4661 25.4058 26.5491 25.6549 26.6321C25.9039 26.7152 26.07 26.7152 26.236 26.7152L29.0588 26.6321C29.3079 26.6321 29.5569 26.5491 29.723 26.4661C29.889 26.3831 29.972 26.3 29.972 26.134C29.972 26.051 29.972 25.8849 29.972 25.8019C29.806 25.6359 29.806 25.5528 29.806 25.4698Z" fill="#fff"/></symbol></svg>